<mxfile host="app.diagrams.net" modified="2024-04-22T16:46:26.572Z" agent="Mozilla/5.0 (Windows NT 10.0; Win64; x64) AppleWebKit/537.36 (KHTML, like Gecko) Chrome/123.0.0.0 Safari/537.36" etag="Uz2GTVNsabV1a1poGlKD" version="24.2.7" type="google">
  <diagram name="Page-1" id="yafoXIaG7qADgCPlpzeN">
    <mxGraphModel grid="1" page="1" gridSize="10" guides="1" tooltips="1" connect="1" arrows="1" fold="1" pageScale="1" pageWidth="827" pageHeight="1169" background="none" math="0" shadow="0">
      <root>
        <mxCell id="0" />
        <mxCell id="1" parent="0" />
        <mxCell id="JBrHtv7_atWJy7W29cf8-406" value="ADMIN" style="html=1;overflow=block;blockSpacing=1;whiteSpace=wrap;fontSize=16.7;spacing=3.8;rounded=1;absoluteArcSize=1;arcSize=9;strokeWidth=NaN;lucidId=-lgvQSI8.nfJ;" vertex="1" parent="1">
          <mxGeometry x="900" y="216" width="192" height="139" as="geometry" />
        </mxCell>
        <mxCell id="JBrHtv7_atWJy7W29cf8-407" value="tbl_user_registre" style="html=1;overflow=block;blockSpacing=1;whiteSpace=wrap;fontSize=16.7;spacing=3.8;rounded=1;absoluteArcSize=1;arcSize=9;strokeWidth=NaN;lucidId=amgveqr-UFMH;" vertex="1" parent="1">
          <mxGeometry x="300" y="289" width="150" height="79" as="geometry" />
        </mxCell>
        <mxCell id="JBrHtv7_atWJy7W29cf8-408" value="tbl_state" style="html=1;overflow=block;blockSpacing=1;whiteSpace=wrap;fontSize=16.7;spacing=3.8;rounded=1;absoluteArcSize=1;arcSize=9;strokeWidth=NaN;lucidId=cmgvpphi-b9D;" vertex="1" parent="1">
          <mxGeometry x="1202" y="-320" width="120" height="49" as="geometry" />
        </mxCell>
        <mxCell id="JBrHtv7_atWJy7W29cf8-409" value="tbl_course" style="html=1;overflow=block;blockSpacing=1;whiteSpace=wrap;fontSize=16.7;spacing=3.8;rounded=1;absoluteArcSize=1;arcSize=9;strokeWidth=NaN;lucidId=cmgvTmViTCq9;" vertex="1" parent="1">
          <mxGeometry y="-9" width="120" height="90" as="geometry" />
        </mxCell>
        <mxCell id="JBrHtv7_atWJy7W29cf8-410" value="tbl_sector" style="html=1;overflow=block;blockSpacing=1;whiteSpace=wrap;fontSize=13.9;align=left;spacing=3.8;rounded=1;absoluteArcSize=1;arcSize=9;strokeWidth=NaN;lucidId=dmgvAfRabtHW;" vertex="1" parent="1">
          <mxGeometry x="1471" y="191" width="112" height="49" as="geometry" />
        </mxCell>
        <mxCell id="JBrHtv7_atWJy7W29cf8-411" value="tbl_query" style="html=1;overflow=block;blockSpacing=1;whiteSpace=wrap;fontSize=16.7;spacing=3.8;rounded=1;absoluteArcSize=1;arcSize=9;strokeWidth=NaN;lucidId=emgvwSve8z2o;" vertex="1" parent="1">
          <mxGeometry x="349" y="-238" width="135" height="49" as="geometry" />
        </mxCell>
        <mxCell id="JBrHtv7_atWJy7W29cf8-412" value="tbl_dept" style="html=1;overflow=block;blockSpacing=1;whiteSpace=wrap;fontSize=16.7;spacing=3.8;rounded=1;absoluteArcSize=1;arcSize=9;strokeWidth=NaN;lucidId=emgvGCqLKK-3;" vertex="1" parent="1">
          <mxGeometry x="674" y="-225" width="120" height="45" as="geometry" />
        </mxCell>
        <mxCell id="JBrHtv7_atWJy7W29cf8-413" value="tbl_city" style="html=1;overflow=block;blockSpacing=1;whiteSpace=wrap;fontSize=16.7;spacing=3.8;rounded=1;absoluteArcSize=1;arcSize=9;strokeWidth=NaN;lucidId=.mgvxTTmbqjP;" vertex="1" parent="1">
          <mxGeometry x="1202" y="-254.5" width="120" height="41" as="geometry" />
        </mxCell>
        <mxCell id="JBrHtv7_atWJy7W29cf8-414" value="  tbl_entrance_exam" style="html=1;overflow=block;blockSpacing=1;whiteSpace=wrap;fontSize=13.9;align=left;spacing=3.8;rounded=1;absoluteArcSize=1;arcSize=9;strokeWidth=NaN;lucidId=~mgvDQHZpvH8;" vertex="1" parent="1">
          <mxGeometry x="1402" y="-110" width="150" height="60" as="geometry" />
        </mxCell>
        <mxCell id="JBrHtv7_atWJy7W29cf8-415" value="tbl_cat" style="html=1;overflow=block;blockSpacing=1;whiteSpace=wrap;fontSize=13.9;align=left;spacing=3.8;rounded=1;absoluteArcSize=1;arcSize=9;strokeWidth=NaN;lucidId=pngvHg3~OKz4;" vertex="1" parent="1">
          <mxGeometry x="825" y="663" width="120" height="90" as="geometry" />
        </mxCell>
        <mxCell id="JBrHtv7_atWJy7W29cf8-416" value="    tbl_institute" style="html=1;overflow=block;blockSpacing=1;whiteSpace=wrap;fontSize=13.9;align=left;spacing=3.8;rounded=1;absoluteArcSize=1;arcSize=9;strokeWidth=NaN;lucidId=pngvSO_mWGvt;" vertex="1" parent="1">
          <mxGeometry x="1629" y="458" width="120" height="59" as="geometry" />
        </mxCell>
        <mxCell id="JBrHtv7_atWJy7W29cf8-417" value="tbl_alumni" style="html=1;overflow=block;blockSpacing=1;whiteSpace=wrap;fontSize=13.9;align=left;spacing=3.8;rounded=1;absoluteArcSize=1;arcSize=9;strokeWidth=NaN;lucidId=qngvmGM9gnUo;" vertex="1" parent="1">
          <mxGeometry x="60" y="593" width="165" height="62" as="geometry" />
        </mxCell>
        <mxCell id="JBrHtv7_atWJy7W29cf8-418" value="cc_user_id" style="html=1;overflow=block;blockSpacing=1;whiteSpace=wrap;ellipse;fontSize=16.7;spacing=3.8;rounded=1;absoluteArcSize=1;arcSize=9;strokeWidth=NaN;lucidId=YwgvHb0._Hjh;" vertex="1" parent="1">
          <mxGeometry x="96" y="180" width="120" height="49" as="geometry" />
        </mxCell>
        <mxCell id="JBrHtv7_atWJy7W29cf8-419" value="cc_google_id" style="html=1;overflow=block;blockSpacing=1;whiteSpace=wrap;ellipse;fontSize=16.7;spacing=3.8;rounded=1;absoluteArcSize=1;arcSize=9;strokeWidth=NaN;lucidId=8wgvsHnpbr0T;" vertex="1" parent="1">
          <mxGeometry x="96" y="240" width="120" height="49" as="geometry" />
        </mxCell>
        <mxCell id="JBrHtv7_atWJy7W29cf8-420" value="cc_user_name" style="html=1;overflow=block;blockSpacing=1;whiteSpace=wrap;ellipse;fontSize=16.7;spacing=3.8;rounded=1;absoluteArcSize=1;arcSize=9;strokeWidth=NaN;lucidId=8wgvbYs7SXMY;" vertex="1" parent="1">
          <mxGeometry x="96" y="300" width="120" height="49" as="geometry" />
        </mxCell>
        <mxCell id="JBrHtv7_atWJy7W29cf8-421" value="cc_email_id" style="html=1;overflow=block;blockSpacing=1;whiteSpace=wrap;ellipse;fontSize=16.7;spacing=3.8;rounded=1;absoluteArcSize=1;arcSize=9;strokeWidth=NaN;lucidId=9wgvg32chc9U;" vertex="1" parent="1">
          <mxGeometry x="96" y="360" width="120" height="49" as="geometry" />
        </mxCell>
        <mxCell id="JBrHtv7_atWJy7W29cf8-422" value="cc_password" style="html=1;overflow=block;blockSpacing=1;whiteSpace=wrap;ellipse;fontSize=16.7;spacing=3.8;rounded=1;absoluteArcSize=1;arcSize=9;strokeWidth=NaN;lucidId=9wgvTf2MhxDV;" vertex="1" parent="1">
          <mxGeometry x="96" y="420" width="120" height="49" as="geometry" />
        </mxCell>
        <mxCell id="JBrHtv7_atWJy7W29cf8-423" value="cc_profile_image" style="html=1;overflow=block;blockSpacing=1;whiteSpace=wrap;ellipse;fontSize=16.7;spacing=3.8;rounded=1;absoluteArcSize=1;arcSize=9;strokeWidth=NaN;lucidId=9ygvy6BZ6McR;" vertex="1" parent="1">
          <mxGeometry x="90" y="480" width="129" height="49" as="geometry" />
        </mxCell>
        <mxCell id="JBrHtv7_atWJy7W29cf8-424" value="cc_user_id" style="html=1;overflow=block;blockSpacing=1;whiteSpace=wrap;ellipse;fontSize=16.7;spacing=3.8;rounded=1;absoluteArcSize=1;arcSize=9;strokeWidth=NaN;lucidId=tAgv~_E7Rf9-;" vertex="1" parent="1">
          <mxGeometry x="-112" y="-146" width="120" height="49" as="geometry" />
        </mxCell>
        <mxCell id="JBrHtv7_atWJy7W29cf8-425" value="cc_course_id" style="html=1;overflow=block;blockSpacing=1;whiteSpace=wrap;ellipse;fontSize=16.7;spacing=3.8;rounded=1;absoluteArcSize=1;arcSize=9;strokeWidth=NaN;lucidId=tAgvoxHKb7J1;" vertex="1" parent="1">
          <mxGeometry x="554" y="-279" width="120" height="49" as="geometry" />
        </mxCell>
        <mxCell id="JBrHtv7_atWJy7W29cf8-426" value="cc_dept_id" style="html=1;overflow=block;blockSpacing=1;whiteSpace=wrap;ellipse;fontSize=16.7;spacing=3.8;rounded=1;absoluteArcSize=1;arcSize=9;strokeWidth=NaN;lucidId=tAgvM95hn6By;" vertex="1" parent="1">
          <mxGeometry x="-9" y="-97" width="120" height="49" as="geometry" />
        </mxCell>
        <mxCell id="JBrHtv7_atWJy7W29cf8-427" value="cc_course_description" style="html=1;overflow=block;blockSpacing=1;whiteSpace=wrap;ellipse;fontSize=16.7;spacing=3.8;rounded=1;absoluteArcSize=1;arcSize=9;strokeWidth=NaN;lucidId=tAgvSIpYCVP0;" vertex="1" parent="1">
          <mxGeometry x="-137" y="101" width="177" height="49" as="geometry" />
        </mxCell>
        <mxCell id="JBrHtv7_atWJy7W29cf8-428" value="cc_course_name" style="html=1;overflow=block;blockSpacing=1;whiteSpace=wrap;ellipse;fontSize=16.7;spacing=3.8;rounded=1;absoluteArcSize=1;arcSize=9;strokeWidth=NaN;lucidId=tAgvA-mLkNgn;" vertex="1" parent="1">
          <mxGeometry x="-195" y="54" width="162" height="49" as="geometry" />
        </mxCell>
        <mxCell id="JBrHtv7_atWJy7W29cf8-429" value="cc_course_id" style="html=1;overflow=block;blockSpacing=1;whiteSpace=wrap;ellipse;fontSize=16.7;spacing=3.8;rounded=1;absoluteArcSize=1;arcSize=9;strokeWidth=NaN;lucidId=tAgvEw4jicjk;" vertex="1" parent="1">
          <mxGeometry x="-162" y="-81" width="129" height="49" as="geometry" />
        </mxCell>
        <mxCell id="JBrHtv7_atWJy7W29cf8-430" value="cc_course_img" style="html=1;overflow=block;blockSpacing=1;whiteSpace=wrap;ellipse;fontSize=16.7;spacing=3.8;rounded=1;absoluteArcSize=1;arcSize=9;strokeWidth=NaN;lucidId=-BgvXC9GoidK;" vertex="1" parent="1">
          <mxGeometry x="-171" y="-10" width="120" height="49" as="geometry" />
        </mxCell>
        <mxCell id="JBrHtv7_atWJy7W29cf8-431" value="cc_query_ans" style="html=1;overflow=block;blockSpacing=1;whiteSpace=wrap;ellipse;fontSize=16.7;spacing=3.8;rounded=1;absoluteArcSize=1;arcSize=9;strokeWidth=NaN;lucidId=TDgv_cA3YYY2;" vertex="1" parent="1">
          <mxGeometry x="259" y="-390" width="135" height="49" as="geometry" />
        </mxCell>
        <mxCell id="JBrHtv7_atWJy7W29cf8-432" value="cc_query_desription" style="html=1;overflow=block;blockSpacing=1;whiteSpace=wrap;ellipse;fontSize=16.7;spacing=3.8;rounded=1;absoluteArcSize=1;arcSize=9;strokeWidth=NaN;lucidId=TDgvi36Q5DKX;" vertex="1" parent="1">
          <mxGeometry x="531" y="-341" width="159" height="49" as="geometry" />
        </mxCell>
        <mxCell id="JBrHtv7_atWJy7W29cf8-433" value="cc_query_email" style="html=1;overflow=block;blockSpacing=1;whiteSpace=wrap;ellipse;fontSize=16.7;spacing=3.8;rounded=1;absoluteArcSize=1;arcSize=9;strokeWidth=NaN;lucidId=TDgvdla-ryk5;" vertex="1" parent="1">
          <mxGeometry x="469" y="-390" width="135" height="49" as="geometry" />
        </mxCell>
        <mxCell id="JBrHtv7_atWJy7W29cf8-434" value="cc_query_username" style="html=1;overflow=block;blockSpacing=1;whiteSpace=wrap;ellipse;fontSize=16.7;spacing=3.8;rounded=1;absoluteArcSize=1;arcSize=9;strokeWidth=NaN;lucidId=TDgv0hlJvv4O;" vertex="1" parent="1">
          <mxGeometry x="192" y="-328" width="189" height="49" as="geometry" />
        </mxCell>
        <mxCell id="JBrHtv7_atWJy7W29cf8-435" value="cc_query_id" style="html=1;overflow=block;blockSpacing=1;whiteSpace=wrap;ellipse;fontSize=16.7;spacing=3.8;rounded=1;absoluteArcSize=1;arcSize=9;strokeWidth=NaN;lucidId=TDgvKR14v6mV;" vertex="1" parent="1">
          <mxGeometry x="375" y="-434" width="129" height="49" as="geometry" />
        </mxCell>
        <mxCell id="JBrHtv7_atWJy7W29cf8-436" value="cc_dept_name" style="html=1;overflow=block;blockSpacing=1;whiteSpace=wrap;ellipse;fontSize=16.7;spacing=3.8;rounded=1;absoluteArcSize=1;arcSize=9;strokeWidth=NaN;lucidId=eJgvC-9jub7t;" vertex="1" parent="1">
          <mxGeometry x="677.5" y="-307" width="135" height="49" as="geometry" />
        </mxCell>
        <mxCell id="JBrHtv7_atWJy7W29cf8-437" value="cc_dept_id" style="html=1;overflow=block;blockSpacing=1;whiteSpace=wrap;ellipse;fontSize=16.7;spacing=3.8;rounded=1;absoluteArcSize=1;arcSize=9;strokeWidth=NaN;lucidId=eJgvUhBqJrWk;" vertex="1" parent="1">
          <mxGeometry x="810" y="-273" width="135" height="49" as="geometry" />
        </mxCell>
        <mxCell id="JBrHtv7_atWJy7W29cf8-438" value="cc_state_name" style="html=1;overflow=block;blockSpacing=1;whiteSpace=wrap;ellipse;fontSize=16.7;spacing=3.8;rounded=1;absoluteArcSize=1;arcSize=9;strokeWidth=NaN;lucidId=GKgv.Eurb8vz;" vertex="1" parent="1">
          <mxGeometry x="1266" y="-439" width="135" height="49" as="geometry" />
        </mxCell>
        <mxCell id="JBrHtv7_atWJy7W29cf8-439" value="cc_state_id" style="html=1;overflow=block;blockSpacing=1;whiteSpace=wrap;ellipse;fontSize=16.7;spacing=3.8;rounded=1;absoluteArcSize=1;arcSize=9;strokeWidth=NaN;lucidId=GKgvDhI.X~cR;" vertex="1" parent="1">
          <mxGeometry x="1341" y="-378.5" width="135" height="49" as="geometry" />
        </mxCell>
        <mxCell id="JBrHtv7_atWJy7W29cf8-440" value="cc_state_name" style="html=1;overflow=block;blockSpacing=1;whiteSpace=wrap;ellipse;fontSize=16.7;spacing=3.8;rounded=1;absoluteArcSize=1;arcSize=9;strokeWidth=NaN;lucidId=qMgvvFtFb7Z1;" vertex="1" parent="1">
          <mxGeometry x="1363" y="-268.5" width="135" height="38.5" as="geometry" />
        </mxCell>
        <mxCell id="JBrHtv7_atWJy7W29cf8-441" value="cc_city_id" style="html=1;overflow=block;blockSpacing=1;whiteSpace=wrap;ellipse;fontSize=16.7;spacing=3.8;rounded=1;absoluteArcSize=1;arcSize=9;strokeWidth=NaN;lucidId=qMgvken6qhzx;" vertex="1" parent="1">
          <mxGeometry x="1353.5" y="-312" width="135" height="36" as="geometry" />
        </mxCell>
        <mxCell id="JBrHtv7_atWJy7W29cf8-442" value="cc_state_id" style="html=1;overflow=block;blockSpacing=1;whiteSpace=wrap;ellipse;fontSize=16.7;spacing=3.8;rounded=1;absoluteArcSize=1;arcSize=9;strokeWidth=NaN;lucidId=qMgvq8AABli_;" vertex="1" parent="1">
          <mxGeometry x="1363" y="-225" width="135" height="40" as="geometry" />
        </mxCell>
        <mxCell id="JBrHtv7_atWJy7W29cf8-443" value="" style="html=1;overflow=block;blockSpacing=1;whiteSpace=wrap;fontSize=13;spacing=0;strokeOpacity=100;fillOpacity=100;rounded=1;absoluteArcSize=1;arcSize=9;strokeWidth=1.5;lucidId=cQgvmJ8zxdNX;" vertex="1" parent="1">
          <mxGeometry x="119" y="210" width="73" height="2" as="geometry" />
        </mxCell>
        <mxCell id="JBrHtv7_atWJy7W29cf8-444" value="" style="html=1;overflow=block;blockSpacing=1;whiteSpace=wrap;shape=image;fontSize=13;spacing=0;strokeOpacity=100;rounded=1;absoluteArcSize=1;arcSize=9;rotation=90;strokeWidth=0;image=https://images.lucid.app/images/c8e42a09-b821-4947-9035-e86cd8f13c17/content;imageAspect=0;lucidId=oVgvcMWoXQI_;" vertex="1" parent="1">
          <mxGeometry x="110" y="345" width="92" height="92" as="geometry" />
        </mxCell>
        <mxCell id="JBrHtv7_atWJy7W29cf8-445" value="" style="html=1;overflow=block;blockSpacing=1;whiteSpace=wrap;shape=image;fontSize=13;spacing=0;strokeOpacity=100;rounded=1;absoluteArcSize=1;arcSize=9;rotation=90;strokeWidth=0;image=https://images.lucid.app/images/c8e42a09-b821-4947-9035-e86cd8f13c17/content;imageAspect=0;lucidId=3VgvU6d8y6Qi;" vertex="1" parent="1">
          <mxGeometry x="-585" y="-15" width="92" height="92" as="geometry" />
        </mxCell>
        <mxCell id="JBrHtv7_atWJy7W29cf8-446" value="" style="html=1;overflow=block;blockSpacing=1;whiteSpace=wrap;fontSize=13;spacing=0;strokeOpacity=100;fillOpacity=100;rounded=1;absoluteArcSize=1;arcSize=9;strokeWidth=1.5;lucidId=cXgvAIUuUS2o;" vertex="1" parent="1">
          <mxGeometry x="-145" y="-48" width="91" height="2" as="geometry" />
        </mxCell>
        <mxCell id="JBrHtv7_atWJy7W29cf8-447" value="" style="html=1;overflow=block;blockSpacing=1;whiteSpace=wrap;shape=image;fontSize=13;spacing=0;strokeOpacity=100;rounded=1;absoluteArcSize=1;arcSize=9;rotation=90;strokeWidth=0;image=https://images.lucid.app/images/c8e42a09-b821-4947-9035-e86cd8f13c17/content;imageAspect=0;lucidId=IXgvPr.FQjTv;" vertex="1" parent="1">
          <mxGeometry x="14.5" y="-107" width="92" height="92" as="geometry" />
        </mxCell>
        <mxCell id="JBrHtv7_atWJy7W29cf8-448" value="" style="html=1;overflow=block;blockSpacing=1;whiteSpace=wrap;fontSize=13;spacing=0;strokeOpacity=100;fillOpacity=100;rounded=1;absoluteArcSize=1;arcSize=9;strokeWidth=1.5;lucidId=tYgvww~iU.aO;" vertex="1" parent="1">
          <mxGeometry x="270" y="-355" width="108" height="2" as="geometry" />
        </mxCell>
        <mxCell id="JBrHtv7_atWJy7W29cf8-449" value="" style="html=1;overflow=block;blockSpacing=1;whiteSpace=wrap;fontSize=13;spacing=0;strokeOpacity=100;fillOpacity=100;rounded=1;absoluteArcSize=1;arcSize=9;strokeWidth=1.5;lucidId=2YgvD9S_f~tR;" vertex="1" parent="1">
          <mxGeometry x="831" y="-235" width="98" height="2" as="geometry" />
        </mxCell>
        <mxCell id="JBrHtv7_atWJy7W29cf8-450" value="" style="html=1;overflow=block;blockSpacing=1;whiteSpace=wrap;fontSize=13;spacing=0;strokeOpacity=100;fillOpacity=100;rounded=1;absoluteArcSize=1;arcSize=9;strokeWidth=1.5;lucidId=JZgvAItEb-4T;" vertex="1" parent="1">
          <mxGeometry x="1284.5" y="-401" width="98" height="2" as="geometry" />
        </mxCell>
        <mxCell id="JBrHtv7_atWJy7W29cf8-451" value="" style="html=1;overflow=block;blockSpacing=1;whiteSpace=wrap;fontSize=13;spacing=0;strokeOpacity=100;fillOpacity=100;rounded=1;absoluteArcSize=1;arcSize=9;strokeWidth=1.5;lucidId=i0gvkV1ur7r7;" vertex="1" parent="1">
          <mxGeometry x="1378" y="-283.5" width="98" height="2" as="geometry" />
        </mxCell>
        <mxCell id="JBrHtv7_atWJy7W29cf8-452" value="" style="html=1;overflow=block;blockSpacing=1;whiteSpace=wrap;shape=image;fontSize=13;spacing=0;strokeOpacity=100;rounded=1;absoluteArcSize=1;arcSize=9;rotation=90;strokeWidth=0;image=https://images.lucid.app/images/c8e42a09-b821-4947-9035-e86cd8f13c17/content;imageAspect=0;lucidId=T0gvpJwX595b;" vertex="1" parent="1">
          <mxGeometry x="1382.5" y="-238.5" width="92" height="92" as="geometry" />
        </mxCell>
        <mxCell id="JBrHtv7_atWJy7W29cf8-453" value="cc_exam_about" style="html=1;overflow=block;blockSpacing=1;whiteSpace=wrap;ellipse;fontSize=13.9;align=left;spacing=3.8;rounded=1;absoluteArcSize=1;arcSize=9;strokeWidth=NaN;lucidId=~2gv3JfxpZag;" vertex="1" parent="1">
          <mxGeometry x="1761" y="-97" width="114" height="37" as="geometry" />
        </mxCell>
        <mxCell id="JBrHtv7_atWJy7W29cf8-454" value="cc_exam_conductby" style="html=1;overflow=block;blockSpacing=1;whiteSpace=wrap;ellipse;fontSize=13.9;align=left;spacing=3.8;rounded=1;absoluteArcSize=1;arcSize=9;strokeWidth=NaN;lucidId=~2gvLSs41FfG;" vertex="1" parent="1">
          <mxGeometry x="1744" y="-50" width="139" height="40" as="geometry" />
        </mxCell>
        <mxCell id="JBrHtv7_atWJy7W29cf8-455" value="cc_full_form" style="html=1;overflow=block;blockSpacing=1;whiteSpace=wrap;ellipse;fontSize=13.9;align=left;spacing=3.8;rounded=1;absoluteArcSize=1;arcSize=9;strokeWidth=NaN;lucidId=~2gvWWUl94nc;" vertex="1" parent="1">
          <mxGeometry x="1708" y="4" width="93" height="26" as="geometry" />
        </mxCell>
        <mxCell id="JBrHtv7_atWJy7W29cf8-456" value="cc_exam_website" style="html=1;overflow=block;blockSpacing=1;whiteSpace=wrap;ellipse;fontSize=13.9;align=left;spacing=3.8;rounded=1;absoluteArcSize=1;arcSize=9;strokeWidth=NaN;lucidId=~2gvunNmUj8g;" vertex="1" parent="1">
          <mxGeometry x="1633" y="38" width="120" height="34" as="geometry" />
        </mxCell>
        <mxCell id="JBrHtv7_atWJy7W29cf8-457" value="cc_exam_name" style="html=1;overflow=block;blockSpacing=1;whiteSpace=wrap;ellipse;fontSize=13.9;align=left;spacing=3.8;rounded=1;absoluteArcSize=1;arcSize=9;strokeWidth=NaN;lucidId=~2gvJpvToc2N;" vertex="1" parent="1">
          <mxGeometry x="1523" y="11.25" width="120" height="39.5" as="geometry" />
        </mxCell>
        <mxCell id="JBrHtv7_atWJy7W29cf8-458" value="cc_exam_id" style="html=1;overflow=block;blockSpacing=1;whiteSpace=wrap;ellipse;fontSize=13.9;align=left;spacing=3.8;rounded=1;absoluteArcSize=1;arcSize=9;strokeWidth=NaN;lucidId=~2gvHqyZtPpU;" vertex="1" parent="1">
          <mxGeometry x="1466" y="-20" width="98" height="35" as="geometry" />
        </mxCell>
        <mxCell id="JBrHtv7_atWJy7W29cf8-459" value="cc_eligibility" style="html=1;overflow=block;blockSpacing=1;whiteSpace=wrap;ellipse;fontSize=13.9;align=left;spacing=3.8;rounded=1;absoluteArcSize=1;arcSize=9;strokeWidth=NaN;lucidId=~2gvqc4sTWxd;" vertex="1" parent="1">
          <mxGeometry x="1753" y="-141" width="92" height="31" as="geometry" />
        </mxCell>
        <mxCell id="JBrHtv7_atWJy7W29cf8-460" value="cc_exam_benefits" style="html=1;overflow=block;blockSpacing=1;whiteSpace=wrap;ellipse;fontSize=13.9;align=left;spacing=3.8;rounded=1;absoluteArcSize=1;arcSize=9;strokeWidth=NaN;lucidId=~2gvcBVp3~Xa;" vertex="1" parent="1">
          <mxGeometry x="1702" y="-195.5" width="130" height="35.5" as="geometry" />
        </mxCell>
        <mxCell id="JBrHtv7_atWJy7W29cf8-461" value="cc_price" style="html=1;overflow=block;blockSpacing=1;whiteSpace=wrap;ellipse;fontSize=13.9;align=left;spacing=3.8;rounded=1;absoluteArcSize=1;arcSize=9;strokeWidth=NaN;lucidId=t6gvtza6vsFU;" vertex="1" parent="1">
          <mxGeometry x="1446" y="-168" width="71" height="36" as="geometry" />
        </mxCell>
        <mxCell id="JBrHtv7_atWJy7W29cf8-462" value="cc_exam_cutoff" style="html=1;overflow=block;blockSpacing=1;whiteSpace=wrap;ellipse;fontSize=13.9;align=left;spacing=3.8;rounded=1;absoluteArcSize=1;arcSize=9;strokeWidth=NaN;lucidId=t6gvsZc5QUDS;" vertex="1" parent="1">
          <mxGeometry x="1517" y="-204.5" width="113" height="39" as="geometry" />
        </mxCell>
        <mxCell id="JBrHtv7_atWJy7W29cf8-463" value="cc_exam_logo" style="html=1;overflow=block;blockSpacing=1;whiteSpace=wrap;ellipse;fontSize=13.9;align=left;spacing=3.8;rounded=1;absoluteArcSize=1;arcSize=9;strokeWidth=NaN;lucidId=t6gvytbkHaPI;" vertex="1" parent="1">
          <mxGeometry x="1617" y="-225" width="98" height="35" as="geometry" />
        </mxCell>
        <mxCell id="JBrHtv7_atWJy7W29cf8-465" value="cc_sector_name" style="html=1;overflow=block;blockSpacing=1;whiteSpace=wrap;ellipse;fontSize=13.9;align=left;spacing=3.8;rounded=1;absoluteArcSize=1;arcSize=9;strokeWidth=NaN;lucidId=a-gvOII7yvq8;" vertex="1" parent="1">
          <mxGeometry x="1654" y="216" width="120" height="40" as="geometry" />
        </mxCell>
        <mxCell id="JBrHtv7_atWJy7W29cf8-466" value="cc_sector_id" style="html=1;overflow=block;blockSpacing=1;whiteSpace=wrap;ellipse;fontSize=13.9;align=left;spacing=3.8;rounded=1;absoluteArcSize=1;arcSize=9;strokeWidth=NaN;lucidId=a-gvvY_i~H.X;" vertex="1" parent="1">
          <mxGeometry x="1655" y="185" width="98" height="30" as="geometry" />
        </mxCell>
        <mxCell id="JBrHtv7_atWJy7W29cf8-468" value="cc_ins_doj" style="html=1;overflow=block;blockSpacing=1;whiteSpace=wrap;ellipse;fontSize=13.9;align=left;spacing=3.8;rounded=1;absoluteArcSize=1;arcSize=9;strokeWidth=NaN;lucidId=U.gv0jGRyvaY;" vertex="1" parent="1">
          <mxGeometry x="1918.5" y="266" width="88" height="34" as="geometry" />
        </mxCell>
        <mxCell id="JBrHtv7_atWJy7W29cf8-469" value="cc_state_id" style="html=1;overflow=block;blockSpacing=1;whiteSpace=wrap;ellipse;fontSize=13.9;align=left;spacing=3.8;rounded=1;absoluteArcSize=1;arcSize=9;strokeWidth=NaN;lucidId=U.gvNjpEED4l;" vertex="1" parent="1">
          <mxGeometry x="1715" y="309.5" width="90" height="38" as="geometry" />
        </mxCell>
        <mxCell id="JBrHtv7_atWJy7W29cf8-470" value="cc_ins_admission" style="html=1;overflow=block;blockSpacing=1;whiteSpace=wrap;ellipse;fontSize=13.9;align=left;spacing=3.8;rounded=1;absoluteArcSize=1;arcSize=9;strokeWidth=NaN;lucidId=U.gvs6Oj38~h;" vertex="1" parent="1">
          <mxGeometry x="1639" y="400" width="128" height="38" as="geometry" />
        </mxCell>
        <mxCell id="JBrHtv7_atWJy7W29cf8-471" value="cc_ins_eligibilty" style="html=1;overflow=block;blockSpacing=1;whiteSpace=wrap;ellipse;fontSize=13.9;align=left;spacing=3.8;rounded=1;absoluteArcSize=1;arcSize=9;strokeWidth=NaN;lucidId=U.gvoWtxz82P;" vertex="1" parent="1">
          <mxGeometry x="1681" y="544" width="120" height="26" as="geometry" />
        </mxCell>
        <mxCell id="JBrHtv7_atWJy7W29cf8-472" value="cc_ins_desc" style="html=1;overflow=block;blockSpacing=1;whiteSpace=wrap;ellipse;fontSize=13.9;align=left;spacing=3.8;rounded=1;absoluteArcSize=1;arcSize=9;strokeWidth=NaN;lucidId=U.gvL9xRQ2oe;" vertex="1" parent="1">
          <mxGeometry x="1978" y="300" width="90" height="36" as="geometry" />
        </mxCell>
        <mxCell id="JBrHtv7_atWJy7W29cf8-473" value="cc_ins_sector_id" style="html=1;overflow=block;blockSpacing=1;whiteSpace=wrap;ellipse;fontSize=13.9;align=left;spacing=3.8;rounded=1;absoluteArcSize=1;arcSize=9;strokeWidth=NaN;lucidId=U.gvLl1SrIZM;" vertex="1" parent="1">
          <mxGeometry x="2004" y="437" width="124" height="39" as="geometry" />
        </mxCell>
        <mxCell id="JBrHtv7_atWJy7W29cf8-474" value="cc_ins_establish" style="html=1;overflow=block;blockSpacing=1;whiteSpace=wrap;ellipse;fontSize=13.9;align=left;spacing=3.8;rounded=1;absoluteArcSize=1;arcSize=9;strokeWidth=NaN;lucidId=U.gv_iOUKKxF;" vertex="1" parent="1">
          <mxGeometry x="1801" y="611" width="120" height="33.5" as="geometry" />
        </mxCell>
        <mxCell id="JBrHtv7_atWJy7W29cf8-475" value="cc_ins_id" style="html=1;overflow=block;blockSpacing=1;whiteSpace=wrap;ellipse;fontSize=13.9;align=left;spacing=3.8;rounded=1;absoluteArcSize=1;arcSize=9;strokeWidth=NaN;lucidId=U.gv.wTF~cO9;" vertex="1" parent="1">
          <mxGeometry x="1780" y="275" width="80" height="36" as="geometry" />
        </mxCell>
        <mxCell id="JBrHtv7_atWJy7W29cf8-476" value="cc_ins_name" style="html=1;overflow=block;blockSpacing=1;whiteSpace=wrap;ellipse;fontSize=13.9;align=left;spacing=3.8;rounded=1;absoluteArcSize=1;arcSize=9;strokeWidth=NaN;lucidId=U.gvsWwvK7hr;" vertex="1" parent="1">
          <mxGeometry x="2020" y="529" width="98" height="30" as="geometry" />
        </mxCell>
        <mxCell id="JBrHtv7_atWJy7W29cf8-477" value="cc_ins_address" style="html=1;overflow=block;blockSpacing=1;whiteSpace=wrap;ellipse;fontSize=13.9;align=left;spacing=3.8;rounded=1;absoluteArcSize=1;arcSize=9;strokeWidth=NaN;lucidId=0chvfagLjiPR;" vertex="1" parent="1">
          <mxGeometry x="2029" y="569" width="114" height="36" as="geometry" />
        </mxCell>
        <mxCell id="JBrHtv7_atWJy7W29cf8-478" value="cc_ins_logical_add" style="html=1;overflow=block;blockSpacing=1;whiteSpace=wrap;ellipse;fontSize=13.9;align=left;spacing=3.8;rounded=1;absoluteArcSize=1;arcSize=9;strokeWidth=NaN;lucidId=0chvjbL_E4Yb;" vertex="1" parent="1">
          <mxGeometry x="1895" y="634" width="135" height="36" as="geometry" />
        </mxCell>
        <mxCell id="JBrHtv7_atWJy7W29cf8-479" value="cc_ins_link" style="html=1;overflow=block;blockSpacing=1;whiteSpace=wrap;ellipse;fontSize=13.9;align=left;spacing=3.8;rounded=1;absoluteArcSize=1;arcSize=9;strokeWidth=NaN;lucidId=0chvyP13HNFA;" vertex="1" parent="1">
          <mxGeometry x="2016" y="400" width="79" height="34" as="geometry" />
        </mxCell>
        <mxCell id="JBrHtv7_atWJy7W29cf8-480" value="cc_city_id" style="html=1;overflow=block;blockSpacing=1;whiteSpace=wrap;ellipse;fontSize=13.9;align=left;spacing=3.8;rounded=1;absoluteArcSize=1;arcSize=9;strokeWidth=NaN;lucidId=0chv3Y~l~y~1;" vertex="1" parent="1">
          <mxGeometry x="1993" y="343" width="75" height="34" as="geometry" />
        </mxCell>
        <mxCell id="JBrHtv7_atWJy7W29cf8-481" value="cc_ins_email_id" style="html=1;overflow=block;blockSpacing=1;whiteSpace=wrap;ellipse;fontSize=13.9;align=left;spacing=3.8;rounded=1;absoluteArcSize=1;arcSize=9;strokeWidth=NaN;lucidId=0dhvU_TduO0S;" vertex="1" parent="1">
          <mxGeometry x="1654" y="355" width="114" height="40" as="geometry" />
        </mxCell>
        <mxCell id="JBrHtv7_atWJy7W29cf8-482" value="cc_ins_contact" style="html=1;overflow=block;blockSpacing=1;whiteSpace=wrap;ellipse;fontSize=13.9;align=left;spacing=3.8;rounded=1;absoluteArcSize=1;arcSize=9;strokeWidth=NaN;lucidId=0dhviCr-AQGQ;" vertex="1" parent="1">
          <mxGeometry x="2029" y="614" width="107" height="36" as="geometry" />
        </mxCell>
        <mxCell id="JBrHtv7_atWJy7W29cf8-483" value="cc_ins_placement_report" style="html=1;overflow=block;blockSpacing=1;whiteSpace=wrap;ellipse;fontSize=13.9;align=left;spacing=3.8;rounded=1;absoluteArcSize=1;arcSize=9;strokeWidth=NaN;lucidId=0dhvKOA2-yHH;" vertex="1" parent="1">
          <mxGeometry x="1704" y="577" width="171" height="34" as="geometry" />
        </mxCell>
        <mxCell id="JBrHtv7_atWJy7W29cf8-484" value="cc_ins_cutoff" style="html=1;overflow=block;blockSpacing=1;whiteSpace=wrap;ellipse;fontSize=13.9;align=left;spacing=3.8;rounded=1;absoluteArcSize=1;arcSize=9;strokeWidth=NaN;lucidId=0dhvjmO.izAO;" vertex="1" parent="1">
          <mxGeometry x="2016" y="484" width="105" height="36" as="geometry" />
        </mxCell>
        <mxCell id="JBrHtv7_atWJy7W29cf8-485" value="cc_ins_img" style="html=1;overflow=block;blockSpacing=1;whiteSpace=wrap;ellipse;fontSize=13.9;align=left;spacing=3.8;rounded=1;absoluteArcSize=1;arcSize=9;strokeWidth=NaN;lucidId=~ehvGcBTxYO6;" vertex="1" parent="1">
          <mxGeometry x="1845" y="238" width="90" height="34" as="geometry" />
        </mxCell>
        <mxCell id="JBrHtv7_atWJy7W29cf8-486" value="" style="html=1;overflow=block;blockSpacing=1;whiteSpace=wrap;fontSize=13;spacing=0;strokeOpacity=100;fillOpacity=100;rounded=1;absoluteArcSize=1;arcSize=9;strokeWidth=1.5;lucidId=DfhvcRgbw29d;" vertex="1" parent="1">
          <mxGeometry x="1796" y="300" width="48" height="2" as="geometry" />
        </mxCell>
        <mxCell id="JBrHtv7_atWJy7W29cf8-487" value="" style="html=1;overflow=block;blockSpacing=1;whiteSpace=wrap;shape=image;fontSize=13;spacing=0;strokeOpacity=100;rounded=1;absoluteArcSize=1;arcSize=9;rotation=90;strokeWidth=0;image=https://images.lucid.app/images/c8e42a09-b821-4947-9035-e86cd8f13c17/content;imageAspect=0;lucidId=gghvHogP973I;" vertex="1" parent="1">
          <mxGeometry x="1998.5" y="336" width="64" height="64" as="geometry" />
        </mxCell>
        <mxCell id="JBrHtv7_atWJy7W29cf8-489" value="" style="html=1;overflow=block;blockSpacing=1;whiteSpace=wrap;shape=image;fontSize=13;spacing=0;strokeOpacity=100;rounded=1;absoluteArcSize=1;arcSize=9;rotation=90;strokeWidth=0;image=https://images.lucid.app/images/c8e42a09-b821-4947-9035-e86cd8f13c17/content;imageAspect=0;lucidId=Tghvf6sadP7C;" vertex="1" parent="1">
          <mxGeometry x="1488.5" y="377" width="55" height="55" as="geometry" />
        </mxCell>
        <mxCell id="JBrHtv7_atWJy7W29cf8-490" value="" style="html=1;overflow=block;blockSpacing=1;whiteSpace=wrap;shape=image;fontSize=13;spacing=0;strokeOpacity=100;rounded=1;absoluteArcSize=1;arcSize=9;rotation=90;strokeWidth=0;image=https://images.lucid.app/images/c8e42a09-b821-4947-9035-e86cd8f13c17/content;imageAspect=0;lucidId=YzhvEihYkvJj;" vertex="1" parent="1">
          <mxGeometry x="2020" y="418" width="96" height="96" as="geometry" />
        </mxCell>
        <mxCell id="JBrHtv7_atWJy7W29cf8-491" value=" alumni_institute" style="html=1;overflow=block;blockSpacing=1;whiteSpace=wrap;ellipse;fontSize=13.9;align=left;spacing=3.8;rounded=1;absoluteArcSize=1;arcSize=9;strokeWidth=NaN;lucidId=AEhvNF6wEsOm;" vertex="1" parent="1">
          <mxGeometry x="-180" y="700" width="114" height="43" as="geometry" />
        </mxCell>
        <mxCell id="JBrHtv7_atWJy7W29cf8-492" value="  alumni_dept" style="html=1;overflow=block;blockSpacing=1;whiteSpace=wrap;ellipse;fontSize=13.9;align=left;spacing=3.8;rounded=1;absoluteArcSize=1;arcSize=9;strokeWidth=NaN;lucidId=AEhvVXbhVcHR;" vertex="1" parent="1">
          <mxGeometry x="-45" y="789" width="98" height="43" as="geometry" />
        </mxCell>
        <mxCell id="JBrHtv7_atWJy7W29cf8-493" value="alumni_degree" style="html=1;overflow=block;blockSpacing=1;whiteSpace=wrap;ellipse;fontSize=13.9;align=left;spacing=3.8;rounded=1;absoluteArcSize=1;arcSize=9;strokeWidth=NaN;lucidId=AEhv3CsHpQ_X;" vertex="1" parent="1">
          <mxGeometry x="8" y="829" width="105" height="41" as="geometry" />
        </mxCell>
        <mxCell id="JBrHtv7_atWJy7W29cf8-494" value="alumni_grad_year" style="html=1;overflow=block;blockSpacing=1;whiteSpace=wrap;ellipse;fontSize=13.9;align=left;spacing=3.8;rounded=1;absoluteArcSize=1;arcSize=9;strokeWidth=NaN;lucidId=AEhvMWB9pumV;" vertex="1" parent="1">
          <mxGeometry x="-118" y="747" width="120" height="42" as="geometry" />
        </mxCell>
        <mxCell id="JBrHtv7_atWJy7W29cf8-495" value="alumni_degree_file" style="html=1;overflow=block;blockSpacing=1;whiteSpace=wrap;ellipse;fontSize=13.9;align=left;spacing=3.8;rounded=1;absoluteArcSize=1;arcSize=9;strokeWidth=NaN;lucidId=AEhvicW_uoU1;" vertex="1" parent="1">
          <mxGeometry x="150" y="674" width="134" height="42" as="geometry" />
        </mxCell>
        <mxCell id="JBrHtv7_atWJy7W29cf8-496" value="alumni_review" style="html=1;overflow=block;blockSpacing=1;whiteSpace=wrap;ellipse;fontSize=13.9;align=left;spacing=3.8;rounded=1;absoluteArcSize=1;arcSize=9;strokeWidth=NaN;lucidId=AEhvNMtfa2RB;" vertex="1" parent="1">
          <mxGeometry x="82" y="795" width="98" height="43" as="geometry" />
        </mxCell>
        <mxCell id="JBrHtv7_atWJy7W29cf8-497" value="  alumni_email_id" style="html=1;overflow=block;blockSpacing=1;whiteSpace=wrap;ellipse;fontSize=13.9;align=left;spacing=3.8;rounded=1;absoluteArcSize=1;arcSize=9;strokeWidth=NaN;lucidId=AEhvBWclJ0NU;" vertex="1" parent="1">
          <mxGeometry x="-210" y="660" width="127" height="38" as="geometry" />
        </mxCell>
        <mxCell id="JBrHtv7_atWJy7W29cf8-498" value="   alumni_mob" style="html=1;overflow=block;blockSpacing=1;whiteSpace=wrap;ellipse;fontSize=13.9;align=left;spacing=3.8;rounded=1;absoluteArcSize=1;arcSize=9;strokeWidth=NaN;lucidId=AEhv.G~-b00N;" vertex="1" parent="1">
          <mxGeometry x="-165" y="621" width="113" height="39" as="geometry" />
        </mxCell>
        <mxCell id="JBrHtv7_atWJy7W29cf8-499" value=" alumni_id" style="html=1;overflow=block;blockSpacing=1;whiteSpace=wrap;ellipse;fontSize=13.9;align=left;spacing=3.8;rounded=1;absoluteArcSize=1;arcSize=9;strokeWidth=NaN;lucidId=AEhvl0qg6d19;" vertex="1" parent="1">
          <mxGeometry x="4" y="496" width="71" height="49" as="geometry" />
        </mxCell>
        <mxCell id="JBrHtv7_atWJy7W29cf8-500" value="   alumni_name" style="html=1;overflow=block;blockSpacing=1;whiteSpace=wrap;ellipse;fontSize=13.9;align=left;spacing=3.8;rounded=1;absoluteArcSize=1;arcSize=9;strokeWidth=NaN;lucidId=AEhvnRBd_oQ6;" vertex="1" parent="1">
          <mxGeometry x="-83" y="534" width="113" height="49" as="geometry" />
        </mxCell>
        <mxCell id="JBrHtv7_atWJy7W29cf8-501" value="  alumni_dob" style="html=1;overflow=block;blockSpacing=1;whiteSpace=wrap;ellipse;fontSize=13.9;align=left;spacing=3.8;rounded=1;absoluteArcSize=1;arcSize=9;strokeWidth=NaN;lucidId=AEhv620ZSJn~;" vertex="1" parent="1">
          <mxGeometry x="-120" y="582" width="98" height="39" as="geometry" />
        </mxCell>
        <mxCell id="JBrHtv7_atWJy7W29cf8-502" value="" style="html=1;overflow=block;blockSpacing=1;whiteSpace=wrap;fontSize=13;spacing=0;strokeOpacity=100;fillOpacity=100;rounded=1;absoluteArcSize=1;arcSize=9;strokeWidth=1.5;lucidId=AEhv5qpVJ1Zj;" vertex="1" parent="1">
          <mxGeometry x="113" y="1189" width="68" height="2" as="geometry" />
        </mxCell>
        <mxCell id="JBrHtv7_atWJy7W29cf8-503" value="alumni_gender" style="html=1;overflow=block;blockSpacing=1;whiteSpace=wrap;ellipse;fontSize=13.9;align=left;spacing=3.8;rounded=1;absoluteArcSize=1;arcSize=9;strokeWidth=NaN;lucidId=SGhv8HAx-SlJ;" vertex="1" parent="1">
          <mxGeometry x="216" y="716" width="105" height="43" as="geometry" />
        </mxCell>
        <mxCell id="JBrHtv7_atWJy7W29cf8-504" value="alumni_password" style="html=1;overflow=block;blockSpacing=1;whiteSpace=wrap;ellipse;fontSize=13.9;align=left;spacing=3.8;rounded=1;absoluteArcSize=1;arcSize=9;strokeWidth=NaN;lucidId=SGhvJMzPveuR;" vertex="1" parent="1">
          <mxGeometry x="130" y="755" width="120" height="43" as="geometry" />
        </mxCell>
        <mxCell id="JBrHtv7_atWJy7W29cf8-505" value="" style="html=1;overflow=block;blockSpacing=1;whiteSpace=wrap;fontSize=13;spacing=0;strokeOpacity=100;fillOpacity=100;rounded=1;absoluteArcSize=1;arcSize=9;strokeWidth=1.5;lucidId=YThvQS-9QSDB;" vertex="1" parent="1">
          <mxGeometry x="15" y="529" width="53" height="2" as="geometry" />
        </mxCell>
        <mxCell id="JBrHtv7_atWJy7W29cf8-506" value="" style="html=1;overflow=block;blockSpacing=1;whiteSpace=wrap;shape=image;fontSize=13;spacing=0;strokeOpacity=100;rounded=1;absoluteArcSize=1;arcSize=9;rotation=90;strokeWidth=0;image=https://images.lucid.app/images/c8e42a09-b821-4947-9035-e86cd8f13c17/content;imageAspect=0;lucidId=JUhv.mtjtJAb;" vertex="1" parent="1">
          <mxGeometry x="-195" y="640" width="92" height="92" as="geometry" />
        </mxCell>
        <mxCell id="JBrHtv7_atWJy7W29cf8-507" value="" style="html=1;overflow=block;blockSpacing=1;whiteSpace=wrap;shape=image;fontSize=13;spacing=0;strokeOpacity=100;rounded=1;absoluteArcSize=1;arcSize=9;rotation=90;strokeWidth=0;image=https://images.lucid.app/images/c8e42a09-b821-4947-9035-e86cd8f13c17/content;imageAspect=0;lucidId=TUhvB6VEf3uD;" vertex="1" parent="1">
          <mxGeometry x="15" y="810" width="92" height="92" as="geometry" />
        </mxCell>
        <mxCell id="JBrHtv7_atWJy7W29cf8-508" value="" style="html=1;overflow=block;blockSpacing=1;whiteSpace=wrap;shape=image;fontSize=13;spacing=0;strokeOpacity=100;rounded=1;absoluteArcSize=1;arcSize=9;rotation=90;strokeWidth=0;image=https://images.lucid.app/images/c8e42a09-b821-4947-9035-e86cd8f13c17/content;imageAspect=0;lucidId=TUhvPDDcshhy;" vertex="1" parent="1">
          <mxGeometry x="-171" y="682" width="92" height="92" as="geometry" />
        </mxCell>
        <mxCell id="JBrHtv7_atWJy7W29cf8-509" value="" style="html=1;overflow=block;blockSpacing=1;whiteSpace=wrap;shape=image;fontSize=13;spacing=0;strokeOpacity=100;rounded=1;absoluteArcSize=1;arcSize=9;rotation=90;strokeWidth=0;image=https://images.lucid.app/images/c8e42a09-b821-4947-9035-e86cd8f13c17/content;imageAspect=0;lucidId=UUhvd.zAn5gp;" vertex="1" parent="1">
          <mxGeometry x="-45" y="770" width="92" height="92" as="geometry" />
        </mxCell>
        <mxCell id="JBrHtv7_atWJy7W29cf8-510" value="tbl_alumni_query" style="html=1;overflow=block;blockSpacing=1;whiteSpace=wrap;fontSize=13.9;align=left;spacing=3.8;rounded=1;absoluteArcSize=1;arcSize=9;strokeWidth=NaN;lucidId=FWhvu7ECCDVD;" vertex="1" parent="1">
          <mxGeometry x="383" y="732" width="165" height="62" as="geometry" />
        </mxCell>
        <mxCell id="JBrHtv7_atWJy7W29cf8-511" value="cc_query_ans" style="html=1;overflow=block;blockSpacing=1;whiteSpace=wrap;ellipse;fontSize=13.9;align=left;spacing=3.8;rounded=1;absoluteArcSize=1;arcSize=9;strokeWidth=NaN;lucidId=FWhvwDp-SHJe;" vertex="1" parent="1">
          <mxGeometry x="315" y="855" width="105" height="41" as="geometry" />
        </mxCell>
        <mxCell id="JBrHtv7_atWJy7W29cf8-512" value="cc_query_id" style="html=1;overflow=block;blockSpacing=1;whiteSpace=wrap;ellipse;fontSize=13.9;align=left;spacing=3.8;rounded=1;absoluteArcSize=1;arcSize=9;strokeWidth=NaN;lucidId=FWhvPEvgmT2F;" vertex="1" parent="1">
          <mxGeometry x="280" y="798" width="95" height="42" as="geometry" />
        </mxCell>
        <mxCell id="JBrHtv7_atWJy7W29cf8-513" value="cc_query_description" style="html=1;overflow=block;blockSpacing=1;whiteSpace=wrap;ellipse;fontSize=13.9;align=left;spacing=3.8;rounded=1;absoluteArcSize=1;arcSize=9;strokeWidth=NaN;lucidId=FWhv-VrRWTBr;" vertex="1" parent="1">
          <mxGeometry x="330" y="902" width="143" height="43" as="geometry" />
        </mxCell>
        <mxCell id="JBrHtv7_atWJy7W29cf8-514" value="cc_query_username" style="html=1;overflow=block;blockSpacing=1;whiteSpace=wrap;ellipse;fontSize=13.9;align=left;spacing=3.8;rounded=1;absoluteArcSize=1;arcSize=9;strokeWidth=NaN;lucidId=FWhvO8ne5xbu;" vertex="1" parent="1">
          <mxGeometry x="480" y="902" width="135" height="43" as="geometry" />
        </mxCell>
        <mxCell id="JBrHtv7_atWJy7W29cf8-515" value="cc_query_email" style="html=1;overflow=block;blockSpacing=1;whiteSpace=wrap;ellipse;fontSize=13.9;align=left;spacing=3.8;rounded=1;absoluteArcSize=1;arcSize=9;strokeWidth=NaN;lucidId=FWhvX9K6Ku--;" vertex="1" parent="1">
          <mxGeometry x="525" y="855" width="120" height="43" as="geometry" />
        </mxCell>
        <mxCell id="JBrHtv7_atWJy7W29cf8-516" value="cc_alumni_id" style="html=1;overflow=block;blockSpacing=1;whiteSpace=wrap;ellipse;fontSize=13.9;align=left;spacing=3.8;rounded=1;absoluteArcSize=1;arcSize=9;strokeWidth=NaN;lucidId=VXhvxr4.C-eb;" vertex="1" parent="1">
          <mxGeometry x="548" y="809" width="98" height="42" as="geometry" />
        </mxCell>
        <mxCell id="JBrHtv7_atWJy7W29cf8-517" value="cc_cat_opt_3" style="html=1;overflow=block;blockSpacing=1;whiteSpace=wrap;ellipse;fontSize=13.9;align=left;spacing=3.8;rounded=1;absoluteArcSize=1;arcSize=9;strokeWidth=NaN;lucidId=I1hvIlMVCcKt;" vertex="1" parent="1">
          <mxGeometry x="690" y="846" width="110" height="39" as="geometry" />
        </mxCell>
        <mxCell id="JBrHtv7_atWJy7W29cf8-518" value="cc_opt_1_recommendation" style="html=1;overflow=block;blockSpacing=1;whiteSpace=wrap;ellipse;fontSize=13.9;align=left;spacing=3.8;rounded=1;absoluteArcSize=1;arcSize=9;strokeWidth=NaN;lucidId=I1hv8AsKLZBO;" vertex="1" parent="1">
          <mxGeometry x="707" y="885" width="193" height="49" as="geometry" />
        </mxCell>
        <mxCell id="JBrHtv7_atWJy7W29cf8-519" value="cc_opt_2_recommendation" style="html=1;overflow=block;blockSpacing=1;whiteSpace=wrap;ellipse;fontSize=13.9;align=left;spacing=3.8;rounded=1;absoluteArcSize=1;arcSize=9;strokeWidth=NaN;lucidId=I1hvmSLcS4T7;" vertex="1" parent="1">
          <mxGeometry x="825" y="930" width="193" height="49" as="geometry" />
        </mxCell>
        <mxCell id="JBrHtv7_atWJy7W29cf8-520" value="cc_opt_3_recommendation" style="html=1;overflow=block;blockSpacing=1;whiteSpace=wrap;ellipse;fontSize=13.9;align=left;spacing=3.8;rounded=1;absoluteArcSize=1;arcSize=9;strokeWidth=NaN;lucidId=I1hvGCa3zpGa;" vertex="1" parent="1">
          <mxGeometry x="960" y="881" width="193" height="49" as="geometry" />
        </mxCell>
        <mxCell id="JBrHtv7_atWJy7W29cf8-521" value="cc_cat_opt_2" style="html=1;overflow=block;blockSpacing=1;whiteSpace=wrap;ellipse;fontSize=13.9;align=left;spacing=3.8;rounded=1;absoluteArcSize=1;arcSize=9;strokeWidth=NaN;lucidId=I1hvsVM8Xzuk;" vertex="1" parent="1">
          <mxGeometry x="973" y="826" width="102" height="47" as="geometry" />
        </mxCell>
        <mxCell id="JBrHtv7_atWJy7W29cf8-522" value="cc_cat_opt_1" style="html=1;overflow=block;blockSpacing=1;whiteSpace=wrap;ellipse;fontSize=13.9;align=left;spacing=3.8;rounded=1;absoluteArcSize=1;arcSize=9;strokeWidth=NaN;lucidId=I1hvZGf3ML84;" vertex="1" parent="1">
          <mxGeometry x="1013" y="785" width="102" height="38" as="geometry" />
        </mxCell>
        <mxCell id="JBrHtv7_atWJy7W29cf8-523" value="cc_cat_qstn_id" style="html=1;overflow=block;blockSpacing=1;whiteSpace=wrap;ellipse;fontSize=13.9;align=left;spacing=3.8;rounded=1;absoluteArcSize=1;arcSize=9;strokeWidth=NaN;lucidId=I1hvb3Y0~vbZ;" vertex="1" parent="1">
          <mxGeometry x="663" y="788" width="110" height="49" as="geometry" />
        </mxCell>
        <mxCell id="JBrHtv7_atWJy7W29cf8-524" value="cc_cat_qstn" style="html=1;overflow=block;blockSpacing=1;whiteSpace=wrap;ellipse;fontSize=13.9;align=left;spacing=3.8;rounded=1;absoluteArcSize=1;arcSize=9;strokeWidth=NaN;lucidId=I1hvSxoSaN.W;" vertex="1" parent="1">
          <mxGeometry x="1050" y="740" width="91" height="41" as="geometry" />
        </mxCell>
        <mxCell id="JBrHtv7_atWJy7W29cf8-525" value="" style="html=1;overflow=block;blockSpacing=1;whiteSpace=wrap;shape=image;fontSize=13;spacing=0;strokeOpacity=100;rounded=1;absoluteArcSize=1;arcSize=9;rotation=90;strokeWidth=0;image=https://images.lucid.app/images/c8e42a09-b821-4947-9035-e86cd8f13c17/content;imageAspect=0;lucidId=I1hv9~2QFQ6Y;" vertex="1" parent="1">
          <mxGeometry x="735" y="851" width="137" height="137" as="geometry" />
        </mxCell>
        <mxCell id="JBrHtv7_atWJy7W29cf8-526" value="" style="html=1;overflow=block;blockSpacing=1;whiteSpace=wrap;shape=image;fontSize=13;spacing=0;strokeOpacity=100;rounded=1;absoluteArcSize=1;arcSize=9;rotation=90;strokeWidth=0;image=https://images.lucid.app/images/c8e42a09-b821-4947-9035-e86cd8f13c17/content;imageAspect=0;lucidId=S-hvJZmDujYH;" vertex="1" parent="1">
          <mxGeometry x="848" y="896" width="147" height="147" as="geometry" />
        </mxCell>
        <mxCell id="JBrHtv7_atWJy7W29cf8-527" value="" style="html=1;overflow=block;blockSpacing=1;whiteSpace=wrap;shape=image;fontSize=13;spacing=0;strokeOpacity=100;rounded=1;absoluteArcSize=1;arcSize=9;rotation=90;strokeWidth=0;image=https://images.lucid.app/images/c8e42a09-b821-4947-9035-e86cd8f13c17/content;imageAspect=0;lucidId=S-hvFWorOWcz;" vertex="1" parent="1">
          <mxGeometry x="990" y="851" width="133" height="133" as="geometry" />
        </mxCell>
        <mxCell id="JBrHtv7_atWJy7W29cf8-528" value="" style="html=1;overflow=block;blockSpacing=1;whiteSpace=wrap;shape=image;fontSize=13;spacing=0;strokeOpacity=100;rounded=1;absoluteArcSize=1;arcSize=9;rotation=90;strokeWidth=0;image=https://images.lucid.app/images/c8e42a09-b821-4947-9035-e86cd8f13c17/content;imageAspect=0;lucidId=T-hvwU7B.3o_;" vertex="1" parent="1">
          <mxGeometry x="1341" y="1077" width="92" height="92" as="geometry" />
        </mxCell>
        <mxCell id="JBrHtv7_atWJy7W29cf8-529" value="" style="html=1;overflow=block;blockSpacing=1;whiteSpace=wrap;fontSize=13;spacing=0;strokeOpacity=100;fillOpacity=100;rounded=1;absoluteArcSize=1;arcSize=9;strokeWidth=1.5;lucidId=A_hv2w2nMThm;" vertex="1" parent="1">
          <mxGeometry x="674" y="821" width="88" height="2" as="geometry" />
        </mxCell>
        <mxCell id="JBrHtv7_atWJy7W29cf8-530" value="tbl_ins_course" style="html=1;overflow=block;blockSpacing=1;whiteSpace=wrap;fontSize=13.9;align=left;spacing=3.8;rounded=1;absoluteArcSize=1;arcSize=9;strokeWidth=NaN;lucidId=K~hvqU09HSk~;" vertex="1" parent="1">
          <mxGeometry x="90" y="-230" width="120" height="90" as="geometry" />
        </mxCell>
        <mxCell id="JBrHtv7_atWJy7W29cf8-531" value="cc_ins_id" style="html=1;overflow=block;blockSpacing=1;whiteSpace=wrap;ellipse;fontSize=13.9;align=left;spacing=3.8;rounded=1;absoluteArcSize=1;arcSize=9;strokeWidth=NaN;lucidId=K~hvvYAfGjDa;" vertex="1" parent="1">
          <mxGeometry x="-46" y="-217" width="90" height="49" as="geometry" />
        </mxCell>
        <mxCell id="JBrHtv7_atWJy7W29cf8-532" value="cc_course_id" style="html=1;overflow=block;blockSpacing=1;whiteSpace=wrap;ellipse;fontSize=13.9;align=left;spacing=3.8;rounded=1;absoluteArcSize=1;arcSize=9;strokeWidth=NaN;lucidId=K~hvARcVgxET;" vertex="1" parent="1">
          <mxGeometry x="-52" y="-273" width="105" height="49" as="geometry" />
        </mxCell>
        <mxCell id="JBrHtv7_atWJy7W29cf8-533" value="cc_ins_course_id" style="html=1;overflow=block;blockSpacing=1;whiteSpace=wrap;ellipse;fontSize=13.9;align=left;spacing=3.8;rounded=1;absoluteArcSize=1;arcSize=9;strokeWidth=NaN;lucidId=K~hvXXONx5Nr;" vertex="1" parent="1">
          <mxGeometry x="37" y="-313" width="120" height="49" as="geometry" />
        </mxCell>
        <mxCell id="JBrHtv7_atWJy7W29cf8-536" value="tbl_ins_exam" style="html=1;overflow=block;blockSpacing=1;whiteSpace=wrap;fontSize=13.9;align=left;spacing=3.8;rounded=1;absoluteArcSize=1;arcSize=9;strokeWidth=NaN;lucidId=vdivebSiGmTx;" vertex="1" parent="1">
          <mxGeometry x="1476" y="101" width="102" height="60" as="geometry" />
        </mxCell>
        <mxCell id="JBrHtv7_atWJy7W29cf8-537" value="cc_exam_id" style="html=1;overflow=block;blockSpacing=1;whiteSpace=wrap;ellipse;fontSize=13.9;align=left;spacing=3.8;rounded=1;absoluteArcSize=1;arcSize=9;strokeWidth=NaN;lucidId=SdivdDdNwC9c;" vertex="1" parent="1">
          <mxGeometry x="1657" y="150" width="92" height="25" as="geometry" />
        </mxCell>
        <mxCell id="JBrHtv7_atWJy7W29cf8-538" value="cc_ins_id" style="html=1;overflow=block;blockSpacing=1;whiteSpace=wrap;ellipse;fontSize=13.9;align=left;spacing=3.8;rounded=1;absoluteArcSize=1;arcSize=9;strokeWidth=NaN;lucidId=SdivG6hzzx8Q;" vertex="1" parent="1">
          <mxGeometry x="1666" y="112" width="70" height="25" as="geometry" />
        </mxCell>
        <mxCell id="JBrHtv7_atWJy7W29cf8-539" value="cc_ins_exam_id" style="html=1;overflow=block;blockSpacing=1;whiteSpace=wrap;ellipse;fontSize=13.9;align=left;spacing=3.8;rounded=1;absoluteArcSize=1;arcSize=9;strokeWidth=NaN;lucidId=Sdivo4zcvuXE;" vertex="1" parent="1">
          <mxGeometry x="1645" y="75" width="105" height="29" as="geometry" />
        </mxCell>
        <mxCell id="JBrHtv7_atWJy7W29cf8-544" value="" style="endArrow=none;html=1;rounded=0;exitX=0.036;exitY=0.607;exitDx=0;exitDy=0;exitPerimeter=0;" edge="1" parent="1">
          <mxGeometry width="50" height="50" relative="1" as="geometry">
            <mxPoint x="1645.0000000000002" y="92.60300000000007" as="sourcePoint" />
            <mxPoint x="1576" y="131" as="targetPoint" />
          </mxGeometry>
        </mxCell>
        <mxCell id="JBrHtv7_atWJy7W29cf8-545" value="" style="endArrow=none;html=1;rounded=0;exitX=1;exitY=1;exitDx=0;exitDy=0;entryX=0;entryY=1;entryDx=0;entryDy=0;" edge="1" parent="1" source="JBrHtv7_atWJy7W29cf8-539" target="JBrHtv7_atWJy7W29cf8-539">
          <mxGeometry width="50" height="50" relative="1" as="geometry">
            <mxPoint x="1801" y="127" as="sourcePoint" />
            <mxPoint x="1728" y="135" as="targetPoint" />
          </mxGeometry>
        </mxCell>
        <mxCell id="JBrHtv7_atWJy7W29cf8-546" value="" style="endArrow=none;html=1;rounded=0;exitX=0;exitY=0.5;exitDx=0;exitDy=0;" edge="1" parent="1" source="JBrHtv7_atWJy7W29cf8-538">
          <mxGeometry width="50" height="50" relative="1" as="geometry">
            <mxPoint x="1669" y="113" as="sourcePoint" />
            <mxPoint x="1576" y="131" as="targetPoint" />
          </mxGeometry>
        </mxCell>
        <mxCell id="JBrHtv7_atWJy7W29cf8-547" value="" style="endArrow=none;html=1;rounded=0;entryX=1;entryY=0.5;entryDx=0;entryDy=0;" edge="1" parent="1" target="JBrHtv7_atWJy7W29cf8-536">
          <mxGeometry width="50" height="50" relative="1" as="geometry">
            <mxPoint x="1656" y="161" as="sourcePoint" />
            <mxPoint x="1572" y="145" as="targetPoint" />
          </mxGeometry>
        </mxCell>
        <mxCell id="JBrHtv7_atWJy7W29cf8-555" value="tbl_login" style="html=1;overflow=block;blockSpacing=1;whiteSpace=wrap;fontSize=13.9;align=left;spacing=3.8;rounded=1;absoluteArcSize=1;arcSize=9;strokeWidth=NaN;lucidId=9ziv_brSQnz5;" vertex="1" parent="1">
          <mxGeometry x="382" y="140" width="102" height="60" as="geometry" />
        </mxCell>
        <mxCell id="JBrHtv7_atWJy7W29cf8-556" value="cc_flag" style="html=1;overflow=block;blockSpacing=1;whiteSpace=wrap;ellipse;fontSize=13.9;align=left;spacing=3.8;rounded=1;absoluteArcSize=1;arcSize=9;strokeWidth=NaN;lucidId=9zivBZbiLlqa;" vertex="1" parent="1">
          <mxGeometry x="564" y="190" width="66" height="25" as="geometry" />
        </mxCell>
        <mxCell id="JBrHtv7_atWJy7W29cf8-557" value="cc_password" style="html=1;overflow=block;blockSpacing=1;whiteSpace=wrap;ellipse;fontSize=13.9;align=left;spacing=3.8;rounded=1;absoluteArcSize=1;arcSize=9;strokeWidth=NaN;lucidId=9zivP1~rPg_Y;" vertex="1" parent="1">
          <mxGeometry x="546" y="157" width="102" height="25" as="geometry" />
        </mxCell>
        <mxCell id="JBrHtv7_atWJy7W29cf8-558" value="cc_email_id" style="html=1;overflow=block;blockSpacing=1;whiteSpace=wrap;ellipse;fontSize=13.9;align=left;spacing=3.8;rounded=1;absoluteArcSize=1;arcSize=9;strokeWidth=NaN;lucidId=9zivL4RLF6XJ;" vertex="1" parent="1">
          <mxGeometry x="540" y="121" width="105" height="29" as="geometry" />
        </mxCell>
        <mxCell id="JBrHtv7_atWJy7W29cf8-559" value="" style="endArrow=none;html=1;rounded=0;entryX=0.894;entryY=0.766;entryDx=0;entryDy=0;entryPerimeter=0;exitX=0.128;exitY=0.822;exitDx=0;exitDy=0;exitPerimeter=0;" edge="1" parent="1" source="JBrHtv7_atWJy7W29cf8-558" target="JBrHtv7_atWJy7W29cf8-558">
          <mxGeometry width="50" height="50" relative="1" as="geometry">
            <mxPoint x="522.5" y="183" as="sourcePoint" />
            <mxPoint x="572.5" y="133" as="targetPoint" />
          </mxGeometry>
        </mxCell>
        <mxCell id="JBrHtv7_atWJy7W29cf8-561" value="tbl_otp1" style="html=1;overflow=block;blockSpacing=1;whiteSpace=wrap;fontSize=13.9;align=left;spacing=3.8;rounded=1;absoluteArcSize=1;arcSize=9;strokeWidth=NaN;lucidId=9ziv_brSQnz5;" vertex="1" parent="1">
          <mxGeometry x="478" y="-51" width="102" height="60" as="geometry" />
        </mxCell>
        <mxCell id="JBrHtv7_atWJy7W29cf8-562" value="is_expired" style="html=1;overflow=block;blockSpacing=1;whiteSpace=wrap;ellipse;fontSize=13.9;align=left;spacing=3.8;rounded=1;absoluteArcSize=1;arcSize=9;strokeWidth=NaN;lucidId=9zivBZbiLlqa;" vertex="1" parent="1">
          <mxGeometry x="660" y="-1" width="66" height="25" as="geometry" />
        </mxCell>
        <mxCell id="JBrHtv7_atWJy7W29cf8-563" value="otp" style="html=1;overflow=block;blockSpacing=1;whiteSpace=wrap;ellipse;fontSize=13.9;align=left;spacing=3.8;rounded=1;absoluteArcSize=1;arcSize=9;strokeWidth=NaN;lucidId=9zivP1~rPg_Y;" vertex="1" parent="1">
          <mxGeometry x="642" y="-34" width="102" height="25" as="geometry" />
        </mxCell>
        <mxCell id="JBrHtv7_atWJy7W29cf8-564" value="otp_id" style="html=1;overflow=block;blockSpacing=1;whiteSpace=wrap;ellipse;fontSize=13.9;align=left;spacing=3.8;rounded=1;absoluteArcSize=1;arcSize=9;strokeWidth=NaN;lucidId=9zivL4RLF6XJ;" vertex="1" parent="1">
          <mxGeometry x="636" y="-70" width="105" height="29" as="geometry" />
        </mxCell>
        <mxCell id="JBrHtv7_atWJy7W29cf8-565" value="cc_user_email" style="html=1;overflow=block;blockSpacing=1;whiteSpace=wrap;ellipse;fontSize=13.9;align=left;spacing=3.8;rounded=1;absoluteArcSize=1;arcSize=9;strokeWidth=NaN;lucidId=wDivrzNO.cSE;" vertex="1" parent="1">
          <mxGeometry x="659" y="-115" width="102" height="25" as="geometry" />
        </mxCell>
        <mxCell id="JBrHtv7_atWJy7W29cf8-566" value="otp_date" style="html=1;overflow=block;blockSpacing=1;whiteSpace=wrap;ellipse;fontSize=13.9;align=left;spacing=3.8;rounded=1;absoluteArcSize=1;arcSize=9;strokeWidth=NaN;lucidId=wDivBn9npPIc;" vertex="1" parent="1">
          <mxGeometry x="653" y="-151" width="105" height="29" as="geometry" />
        </mxCell>
        <mxCell id="JBrHtv7_atWJy7W29cf8-567" value="tbl_purchased_mock_test" style="html=1;overflow=block;blockSpacing=1;whiteSpace=wrap;fontSize=10.6;align=left;spacing=3.8;rounded=1;absoluteArcSize=1;arcSize=9;strokeWidth=NaN;lucidId=YGivTM.S_zRl;" vertex="1" parent="1">
          <mxGeometry x="454" y="490" width="165" height="60" as="geometry" />
        </mxCell>
        <mxCell id="JBrHtv7_atWJy7W29cf8-568" value="cc_payment_received" style="html=1;overflow=block;blockSpacing=1;whiteSpace=wrap;ellipse;fontSize=10.6;align=left;spacing=3.8;rounded=1;absoluteArcSize=1;arcSize=9;strokeWidth=NaN;lucidId=YGivkGZw2_fk;" vertex="1" parent="1">
          <mxGeometry x="636" y="538" width="126" height="28" as="geometry" />
        </mxCell>
        <mxCell id="JBrHtv7_atWJy7W29cf8-569" value="cc_purchase_date_time" style="html=1;overflow=block;blockSpacing=1;whiteSpace=wrap;ellipse;fontSize=10.6;align=left;spacing=3.8;rounded=1;absoluteArcSize=1;arcSize=9;strokeWidth=NaN;lucidId=YGivh8GyD2VS;" vertex="1" parent="1">
          <mxGeometry x="618" y="505" width="144" height="28" as="geometry" />
        </mxCell>
        <mxCell id="JBrHtv7_atWJy7W29cf8-570" value="cc_exam_id" style="html=1;overflow=block;blockSpacing=1;whiteSpace=wrap;ellipse;fontSize=10.6;align=left;spacing=3.8;rounded=1;absoluteArcSize=1;arcSize=9;strokeWidth=NaN;lucidId=YGiv9tqBj~Wd;" vertex="1" parent="1">
          <mxGeometry x="637" y="465" width="80" height="29" as="geometry" />
        </mxCell>
        <mxCell id="JBrHtv7_atWJy7W29cf8-571" value="cc_user_id" style="html=1;overflow=block;blockSpacing=1;whiteSpace=wrap;ellipse;fontSize=10.6;align=left;spacing=3.8;rounded=1;absoluteArcSize=1;arcSize=9;strokeWidth=NaN;lucidId=YGivObHPhj0A;" vertex="1" parent="1">
          <mxGeometry x="635" y="425" width="67" height="28" as="geometry" />
        </mxCell>
        <mxCell id="JBrHtv7_atWJy7W29cf8-572" value="cc_purchase_id" style="html=1;overflow=block;blockSpacing=1;whiteSpace=wrap;ellipse;fontSize=10.6;align=left;spacing=3.8;rounded=1;absoluteArcSize=1;arcSize=9;strokeWidth=NaN;lucidId=YGivZSJZ.hOi;" vertex="1" parent="1">
          <mxGeometry x="629" y="390" width="89" height="29" as="geometry" />
        </mxCell>
        <mxCell id="JBrHtv7_atWJy7W29cf8-573" value="tbl_register" style="html=1;overflow=block;blockSpacing=1;whiteSpace=wrap;fontSize=13.9;align=left;spacing=3.8;rounded=1;absoluteArcSize=1;arcSize=9;strokeWidth=NaN;lucidId=qngvmGM9gnUo;" vertex="1" parent="1">
          <mxGeometry x="1363" y="588" width="165" height="62" as="geometry" />
        </mxCell>
        <mxCell id="JBrHtv7_atWJy7W29cf8-574" value="cc_profile_image" style="html=1;overflow=block;blockSpacing=1;whiteSpace=wrap;ellipse;fontSize=16.7;spacing=3.8;rounded=1;absoluteArcSize=1;arcSize=9;strokeWidth=NaN;lucidId=9ygvy6BZ6McR;" vertex="1" parent="1">
          <mxGeometry x="1423" y="493" width="129" height="49" as="geometry" />
        </mxCell>
        <mxCell id="JBrHtv7_atWJy7W29cf8-575" value="cc_address" style="html=1;overflow=block;blockSpacing=1;whiteSpace=wrap;ellipse;fontSize=13.9;align=left;spacing=3.8;rounded=1;absoluteArcSize=1;arcSize=9;strokeWidth=NaN;lucidId=AEhvVXbhVcHR;" vertex="1" parent="1">
          <mxGeometry x="1243" y="725" width="98" height="43" as="geometry" />
        </mxCell>
        <mxCell id="JBrHtv7_atWJy7W29cf8-576" value="cc_pincode" style="html=1;overflow=block;blockSpacing=1;whiteSpace=wrap;ellipse;fontSize=13.9;align=left;spacing=3.8;rounded=1;absoluteArcSize=1;arcSize=9;strokeWidth=NaN;lucidId=AEhv3CsHpQ_X;" vertex="1" parent="1">
          <mxGeometry x="1324" y="760" width="105" height="41" as="geometry" />
        </mxCell>
        <mxCell id="JBrHtv7_atWJy7W29cf8-577" value="cc_mob_no" style="html=1;overflow=block;blockSpacing=1;whiteSpace=wrap;ellipse;fontSize=13.9;align=left;spacing=3.8;rounded=1;absoluteArcSize=1;arcSize=9;strokeWidth=NaN;lucidId=AEhvicW_uoU1;" vertex="1" parent="1">
          <mxGeometry x="1552" y="583" width="134" height="42" as="geometry" />
        </mxCell>
        <mxCell id="JBrHtv7_atWJy7W29cf8-578" value="cc_city_id" style="html=1;overflow=block;blockSpacing=1;whiteSpace=wrap;ellipse;fontSize=13.9;align=left;spacing=3.8;rounded=1;absoluteArcSize=1;arcSize=9;strokeWidth=NaN;lucidId=AEhvNMtfa2RB;" vertex="1" parent="1">
          <mxGeometry x="1543.5" y="747" width="98" height="43" as="geometry" />
        </mxCell>
        <mxCell id="JBrHtv7_atWJy7W29cf8-579" value="cc_password" style="html=1;overflow=block;blockSpacing=1;whiteSpace=wrap;ellipse;fontSize=13.9;align=left;spacing=3.8;rounded=1;absoluteArcSize=1;arcSize=9;strokeWidth=NaN;lucidId=AEhvBWclJ0NU;" vertex="1" parent="1">
          <mxGeometry x="1123" y="673" width="127" height="38" as="geometry" />
        </mxCell>
        <mxCell id="JBrHtv7_atWJy7W29cf8-580" value="cc_email_id" style="html=1;overflow=block;blockSpacing=1;whiteSpace=wrap;ellipse;fontSize=13.9;align=left;spacing=3.8;rounded=1;absoluteArcSize=1;arcSize=9;strokeWidth=NaN;lucidId=AEhv.G~-b00N;" vertex="1" parent="1">
          <mxGeometry x="1168" y="634" width="113" height="39" as="geometry" />
        </mxCell>
        <mxCell id="JBrHtv7_atWJy7W29cf8-581" value="cc_user_id" style="html=1;overflow=block;blockSpacing=1;whiteSpace=wrap;ellipse;fontSize=13.9;align=left;spacing=3.8;rounded=1;absoluteArcSize=1;arcSize=9;strokeWidth=NaN;lucidId=AEhvl0qg6d19;" vertex="1" parent="1">
          <mxGeometry x="1337" y="509" width="71" height="49" as="geometry" />
        </mxCell>
        <mxCell id="JBrHtv7_atWJy7W29cf8-582" value="cc_user_name" style="html=1;overflow=block;blockSpacing=1;whiteSpace=wrap;ellipse;fontSize=13.9;align=left;spacing=3.8;rounded=1;absoluteArcSize=1;arcSize=9;strokeWidth=NaN;lucidId=AEhvnRBd_oQ6;" vertex="1" parent="1">
          <mxGeometry x="1250" y="547" width="113" height="49" as="geometry" />
        </mxCell>
        <mxCell id="JBrHtv7_atWJy7W29cf8-583" value="cc_dob" style="html=1;overflow=block;blockSpacing=1;whiteSpace=wrap;ellipse;fontSize=13.9;align=left;spacing=3.8;rounded=1;absoluteArcSize=1;arcSize=9;strokeWidth=NaN;lucidId=AEhv620ZSJn~;" vertex="1" parent="1">
          <mxGeometry x="1213" y="595" width="98" height="39" as="geometry" />
        </mxCell>
        <mxCell id="JBrHtv7_atWJy7W29cf8-584" value="cc_gender" style="html=1;overflow=block;blockSpacing=1;whiteSpace=wrap;ellipse;fontSize=13.9;align=left;spacing=3.8;rounded=1;absoluteArcSize=1;arcSize=9;strokeWidth=NaN;lucidId=SGhv8HAx-SlJ;" vertex="1" parent="1">
          <mxGeometry x="1561" y="639" width="105" height="43" as="geometry" />
        </mxCell>
        <mxCell id="JBrHtv7_atWJy7W29cf8-585" value="cc_state_id" style="html=1;overflow=block;blockSpacing=1;whiteSpace=wrap;ellipse;fontSize=13.9;align=left;spacing=3.8;rounded=1;absoluteArcSize=1;arcSize=9;strokeWidth=NaN;lucidId=SGhvJMzPveuR;" vertex="1" parent="1">
          <mxGeometry x="1561" y="689" width="120" height="43" as="geometry" />
        </mxCell>
        <mxCell id="JBrHtv7_atWJy7W29cf8-586" value="" style="html=1;overflow=block;blockSpacing=1;whiteSpace=wrap;fontSize=13;spacing=0;strokeOpacity=100;fillOpacity=100;rounded=1;absoluteArcSize=1;arcSize=9;strokeWidth=1.5;lucidId=YThvQS-9QSDB;" vertex="1" parent="1">
          <mxGeometry x="1348" y="542" width="53" height="2" as="geometry" />
        </mxCell>
        <mxCell id="JBrHtv7_atWJy7W29cf8-587" value="" style="html=1;overflow=block;blockSpacing=1;whiteSpace=wrap;shape=image;fontSize=13;spacing=0;strokeOpacity=100;rounded=1;absoluteArcSize=1;arcSize=9;rotation=90;strokeWidth=0;image=https://images.lucid.app/images/c8e42a09-b821-4947-9035-e86cd8f13c17/content;imageAspect=0;lucidId=JUhv.mtjtJAb;" vertex="1" parent="1">
          <mxGeometry x="1578" y="678" width="92" height="92" as="geometry" />
        </mxCell>
        <mxCell id="JBrHtv7_atWJy7W29cf8-588" value="tbl_sector" style="html=1;overflow=block;blockSpacing=1;whiteSpace=wrap;fontSize=13.9;align=left;spacing=3.8;rounded=1;absoluteArcSize=1;arcSize=9;strokeWidth=NaN;lucidId=YGivTM.S_zRl;" vertex="1" parent="1">
          <mxGeometry x="879" y="15" width="80" height="60" as="geometry" />
        </mxCell>
        <mxCell id="JBrHtv7_atWJy7W29cf8-589" value="cc_sector_name" style="html=1;overflow=block;blockSpacing=1;whiteSpace=wrap;ellipse;fontSize=13.9;align=left;spacing=3.8;rounded=1;absoluteArcSize=1;arcSize=9;strokeWidth=NaN;lucidId=YGivObHPhj0A;" vertex="1" parent="1">
          <mxGeometry x="999" y="50" width="142" height="28" as="geometry" />
        </mxCell>
        <mxCell id="JBrHtv7_atWJy7W29cf8-590" value="cc_sector_id" style="html=1;overflow=block;blockSpacing=1;whiteSpace=wrap;ellipse;fontSize=13.9;align=left;spacing=3.8;rounded=1;absoluteArcSize=1;arcSize=9;strokeWidth=NaN;lucidId=YGivZSJZ.hOi;" vertex="1" parent="1">
          <mxGeometry x="1012" y="9" width="103" height="29" as="geometry" />
        </mxCell>
        <mxCell id="JBrHtv7_atWJy7W29cf8-591" value="" style="html=1;overflow=block;blockSpacing=1;whiteSpace=wrap;shape=image;fontSize=13;spacing=0;strokeOpacity=100;rounded=1;absoluteArcSize=1;arcSize=9;rotation=90;strokeWidth=0;image=https://images.lucid.app/images/c8e42a09-b821-4947-9035-e86cd8f13c17/content;imageAspect=0;lucidId=JUhv.mtjtJAb;" vertex="1" parent="1">
          <mxGeometry x="1549.5" y="739" width="92" height="75" as="geometry" />
        </mxCell>
        <mxCell id="JBrHtv7_atWJy7W29cf8-592" value="" style="html=1;overflow=block;blockSpacing=1;whiteSpace=wrap;shape=image;fontSize=13;spacing=0;strokeOpacity=100;rounded=1;absoluteArcSize=1;arcSize=9;rotation=90;strokeWidth=0;image=https://images.lucid.app/images/c8e42a09-b821-4947-9035-e86cd8f13c17/content;imageAspect=0;lucidId=JUhv.mtjtJAb;" vertex="1" parent="1">
          <mxGeometry x="1178.5" y="618" width="92" height="92" as="geometry" />
        </mxCell>
        <mxCell id="D4TBWOoCTOeFq6Bw1X4H-1" value="" style="endArrow=none;html=1;rounded=0;entryX=0.905;entryY=0.736;entryDx=0;entryDy=0;exitX=0.107;exitY=0.787;exitDx=0;exitDy=0;exitPerimeter=0;entryPerimeter=0;" edge="1" parent="1" source="JBrHtv7_atWJy7W29cf8-572" target="JBrHtv7_atWJy7W29cf8-572">
          <mxGeometry width="50" height="50" relative="1" as="geometry">
            <mxPoint x="590" y="430" as="sourcePoint" />
            <mxPoint x="640" y="380" as="targetPoint" />
          </mxGeometry>
        </mxCell>
        <mxCell id="D4TBWOoCTOeFq6Bw1X4H-2" value="" style="html=1;overflow=block;blockSpacing=1;whiteSpace=wrap;shape=image;fontSize=13;spacing=0;strokeOpacity=100;rounded=1;absoluteArcSize=1;arcSize=9;rotation=90;strokeWidth=0;image=https://images.lucid.app/images/c8e42a09-b821-4947-9035-e86cd8f13c17/content;imageAspect=0;lucidId=JUhv.mtjtJAb;" vertex="1" parent="1">
          <mxGeometry x="1095" y="458" width="92" height="92" as="geometry" />
        </mxCell>
        <mxCell id="D4TBWOoCTOeFq6Bw1X4H-3" value="" style="html=1;overflow=block;blockSpacing=1;whiteSpace=wrap;shape=image;fontSize=13;spacing=0;strokeOpacity=100;rounded=1;absoluteArcSize=1;arcSize=9;rotation=90;strokeWidth=0;image=https://images.lucid.app/images/c8e42a09-b821-4947-9035-e86cd8f13c17/content;imageAspect=0;lucidId=JUhv.mtjtJAb;" vertex="1" parent="1">
          <mxGeometry x="625" y="458" width="92" height="51" as="geometry" />
        </mxCell>
        <mxCell id="D4TBWOoCTOeFq6Bw1X4H-4" value="" style="html=1;overflow=block;blockSpacing=1;whiteSpace=wrap;shape=image;fontSize=13;spacing=0;strokeOpacity=100;rounded=1;absoluteArcSize=1;arcSize=9;rotation=90;strokeWidth=0;image=https://images.lucid.app/images/c8e42a09-b821-4947-9035-e86cd8f13c17/content;imageAspect=0;lucidId=JUhv.mtjtJAb;" vertex="1" parent="1">
          <mxGeometry x="622.5" y="422" width="92" height="50" as="geometry" />
        </mxCell>
        <mxCell id="D4TBWOoCTOeFq6Bw1X4H-30" value="tbl_test_result" style="html=1;overflow=block;blockSpacing=1;whiteSpace=wrap;fontSize=13.9;align=left;spacing=3.8;rounded=1;absoluteArcSize=1;arcSize=9;strokeWidth=NaN;lucidId=amgveqr-UFMH;" vertex="1" parent="1">
          <mxGeometry x="244" y="1522" width="150" height="79" as="geometry" />
        </mxCell>
        <mxCell id="D4TBWOoCTOeFq6Bw1X4H-31" value="cc_result_id" style="html=1;overflow=block;blockSpacing=1;whiteSpace=wrap;ellipse;fontSize=13.9;fontStyle=1;align=right;spacing=3.8;rounded=1;absoluteArcSize=1;arcSize=9;strokeWidth=NaN;lucidId=YwgvHb0._Hjh;" vertex="1" parent="1">
          <mxGeometry x="63" y="1413" width="97" height="45" as="geometry" />
        </mxCell>
        <mxCell id="D4TBWOoCTOeFq6Bw1X4H-32" value="cc_exam_id" style="html=1;overflow=block;blockSpacing=1;whiteSpace=wrap;ellipse;fontSize=13.9;fontStyle=1;align=right;spacing=3.8;rounded=1;absoluteArcSize=1;arcSize=9;strokeWidth=NaN;lucidId=8wgvsHnpbr0T;" vertex="1" parent="1">
          <mxGeometry x="49" y="1473" width="111" height="49" as="geometry" />
        </mxCell>
        <mxCell id="D4TBWOoCTOeFq6Bw1X4H-33" value="cc_user_id" style="html=1;overflow=block;blockSpacing=1;whiteSpace=wrap;ellipse;fontSize=13.9;fontStyle=1;align=right;spacing=3.8;rounded=1;absoluteArcSize=1;arcSize=9;strokeWidth=NaN;lucidId=8wgvbYs7SXMY;" vertex="1" parent="1">
          <mxGeometry x="57" y="1533" width="103" height="45" as="geometry" />
        </mxCell>
        <mxCell id="D4TBWOoCTOeFq6Bw1X4H-34" value="cc_t_id" style="html=1;overflow=block;blockSpacing=1;whiteSpace=wrap;ellipse;fontSize=13.9;fontStyle=1;align=right;spacing=3.8;rounded=1;absoluteArcSize=1;arcSize=9;strokeWidth=NaN;lucidId=9wgvg32chc9U;" vertex="1" parent="1">
          <mxGeometry x="70" y="1615" width="60" height="29" as="geometry" />
        </mxCell>
        <mxCell id="D4TBWOoCTOeFq6Bw1X4H-35" value="cc_marks_obtained" style="html=1;overflow=block;blockSpacing=1;whiteSpace=wrap;ellipse;fontSize=13.9;fontStyle=1;align=right;spacing=3.8;rounded=1;absoluteArcSize=1;arcSize=9;strokeWidth=NaN;lucidId=9wgvTf2MhxDV;" vertex="1" parent="1">
          <mxGeometry x="40" y="1653" width="144" height="45" as="geometry" />
        </mxCell>
        <mxCell id="D4TBWOoCTOeFq6Bw1X4H-36" value="cc_total_marks" style="html=1;overflow=block;blockSpacing=1;whiteSpace=wrap;ellipse;fontSize=13.9;fontStyle=1;align=right;spacing=3.8;rounded=1;absoluteArcSize=1;arcSize=9;strokeWidth=NaN;lucidId=9ygvy6BZ6McR;" vertex="1" parent="1">
          <mxGeometry x="111" y="1693" width="115" height="45" as="geometry" />
        </mxCell>
        <mxCell id="D4TBWOoCTOeFq6Bw1X4H-37" value="" style="html=1;overflow=block;blockSpacing=1;whiteSpace=wrap;fontSize=13;spacing=0;strokeOpacity=100;fillOpacity=100;rounded=1;absoluteArcSize=1;arcSize=9;strokeWidth=1.5;lucidId=cQgvmJ8zxdNX;" vertex="1" parent="1">
          <mxGeometry x="63" y="1443" width="73" height="2" as="geometry" />
        </mxCell>
        <mxCell id="D4TBWOoCTOeFq6Bw1X4H-38" value="" style="html=1;overflow=block;blockSpacing=1;whiteSpace=wrap;shape=image;fontSize=13;spacing=0;strokeOpacity=100;rounded=1;absoluteArcSize=1;arcSize=9;rotation=90;strokeWidth=0;image=https://images.lucid.app/images/c8e42a09-b821-4947-9035-e86cd8f13c17/content;imageAspect=0;lucidId=oVgvcMWoXQI_;" vertex="1" parent="1">
          <mxGeometry x="63" y="1522" width="92" height="92" as="geometry" />
        </mxCell>
        <mxCell id="D4TBWOoCTOeFq6Bw1X4H-39" value="cc_test_start_time" style="html=1;overflow=block;blockSpacing=1;whiteSpace=wrap;ellipse;fontSize=13.9;fontStyle=1;align=left;spacing=3.8;rounded=1;absoluteArcSize=1;arcSize=9;strokeWidth=NaN;lucidId=XYivo9_6EeHH;" vertex="1" parent="1">
          <mxGeometry x="169" y="1412" width="135" height="37" as="geometry" />
        </mxCell>
        <mxCell id="D4TBWOoCTOeFq6Bw1X4H-40" value="cc_test_end_time" style="html=1;overflow=block;blockSpacing=1;whiteSpace=wrap;ellipse;fontSize=13.9;fontStyle=1;align=left;spacing=3.8;rounded=1;absoluteArcSize=1;arcSize=9;strokeWidth=NaN;lucidId=XYivfVD1RIHt;" vertex="1" parent="1">
          <mxGeometry x="319" y="1413" width="135" height="37" as="geometry" />
        </mxCell>
        <mxCell id="D4TBWOoCTOeFq6Bw1X4H-41" value="" style="html=1;overflow=block;blockSpacing=1;whiteSpace=wrap;shape=image;fontSize=13;spacing=0;strokeOpacity=100;rounded=1;absoluteArcSize=1;arcSize=9;rotation=90;strokeWidth=0;image=https://images.lucid.app/images/c8e42a09-b821-4947-9035-e86cd8f13c17/content;imageAspect=0;lucidId=WZiv8y6Gjtu-;" vertex="1" parent="1">
          <mxGeometry x="57" y="1462" width="92" height="92" as="geometry" />
        </mxCell>
        <mxCell id="D4TBWOoCTOeFq6Bw1X4H-42" value="" style="endArrow=none;html=1;rounded=0;entryX=0;entryY=0.5;entryDx=0;entryDy=0;" edge="1" parent="1" target="D4TBWOoCTOeFq6Bw1X4H-83">
          <mxGeometry width="50" height="50" relative="1" as="geometry">
            <mxPoint x="1070.5" y="-324" as="sourcePoint" />
            <mxPoint x="1120.5" y="-374" as="targetPoint" />
          </mxGeometry>
        </mxCell>
        <mxCell id="D4TBWOoCTOeFq6Bw1X4H-47" value="" style="endArrow=none;html=1;rounded=0;entryX=-0.007;entryY=0.622;entryDx=0;entryDy=0;entryPerimeter=0;" edge="1" parent="1" target="JBrHtv7_atWJy7W29cf8-433">
          <mxGeometry width="50" height="50" relative="1" as="geometry">
            <mxPoint x="410" y="-240" as="sourcePoint" />
            <mxPoint x="469" y="-288" as="targetPoint" />
          </mxGeometry>
        </mxCell>
        <mxCell id="D4TBWOoCTOeFq6Bw1X4H-48" value="" style="endArrow=none;html=1;rounded=0;entryX=0.484;entryY=0.971;entryDx=0;entryDy=0;exitX=0.985;exitY=0.01;exitDx=0;exitDy=0;entryPerimeter=0;exitPerimeter=0;" edge="1" parent="1">
          <mxGeometry width="50" height="50" relative="1" as="geometry">
            <mxPoint x="183" y="11" as="sourcePoint" />
            <mxPoint x="204" y="-8" as="targetPoint" />
          </mxGeometry>
        </mxCell>
        <mxCell id="D4TBWOoCTOeFq6Bw1X4H-49" value="" style="endArrow=none;html=1;rounded=0;entryX=0.5;entryY=1;entryDx=0;entryDy=0;" edge="1" parent="1" target="JBrHtv7_atWJy7W29cf8-435">
          <mxGeometry width="50" height="50" relative="1" as="geometry">
            <mxPoint x="410" y="-240" as="sourcePoint" />
            <mxPoint x="464.5" y="-288" as="targetPoint" />
          </mxGeometry>
        </mxCell>
        <mxCell id="D4TBWOoCTOeFq6Bw1X4H-50" value="" style="endArrow=none;html=1;rounded=0;entryX=0;entryY=0.5;entryDx=0;entryDy=0;" edge="1" parent="1" target="JBrHtv7_atWJy7W29cf8-432">
          <mxGeometry width="50" height="50" relative="1" as="geometry">
            <mxPoint x="410" y="-240" as="sourcePoint" />
            <mxPoint x="478" y="-307" as="targetPoint" />
          </mxGeometry>
        </mxCell>
        <mxCell id="D4TBWOoCTOeFq6Bw1X4H-51" value="" style="endArrow=none;html=1;rounded=0;entryX=0;entryY=0.5;entryDx=0;entryDy=0;" edge="1" parent="1" target="JBrHtv7_atWJy7W29cf8-425">
          <mxGeometry width="50" height="50" relative="1" as="geometry">
            <mxPoint x="410" y="-240" as="sourcePoint" />
            <mxPoint x="490.5" y="-299" as="targetPoint" />
          </mxGeometry>
        </mxCell>
        <mxCell id="D4TBWOoCTOeFq6Bw1X4H-52" value="" style="endArrow=none;html=1;rounded=0;entryX=1.007;entryY=0.579;entryDx=0;entryDy=0;entryPerimeter=0;" edge="1" parent="1" target="JBrHtv7_atWJy7W29cf8-431">
          <mxGeometry width="50" height="50" relative="1" as="geometry">
            <mxPoint x="410" y="-240" as="sourcePoint" />
            <mxPoint x="426.5" y="-299" as="targetPoint" />
          </mxGeometry>
        </mxCell>
        <mxCell id="D4TBWOoCTOeFq6Bw1X4H-53" value="" style="endArrow=none;html=1;rounded=0;entryX=1;entryY=0.5;entryDx=0;entryDy=0;" edge="1" parent="1" target="JBrHtv7_atWJy7W29cf8-434">
          <mxGeometry width="50" height="50" relative="1" as="geometry">
            <mxPoint x="410" y="-240" as="sourcePoint" />
            <mxPoint x="420" y="-270" as="targetPoint" />
          </mxGeometry>
        </mxCell>
        <mxCell id="D4TBWOoCTOeFq6Bw1X4H-54" value="" style="endArrow=none;html=1;rounded=0;entryX=0.404;entryY=0.973;entryDx=0;entryDy=0;entryPerimeter=0;exitX=0.5;exitY=0;exitDx=0;exitDy=0;" edge="1" parent="1" source="JBrHtv7_atWJy7W29cf8-412" target="JBrHtv7_atWJy7W29cf8-436">
          <mxGeometry width="50" height="50" relative="1" as="geometry">
            <mxPoint x="731" y="-230" as="sourcePoint" />
            <mxPoint x="743" y="-264" as="targetPoint" />
          </mxGeometry>
        </mxCell>
        <mxCell id="D4TBWOoCTOeFq6Bw1X4H-55" value="" style="endArrow=none;html=1;rounded=0;entryX=0;entryY=0.5;entryDx=0;entryDy=0;exitX=0.5;exitY=0;exitDx=0;exitDy=0;" edge="1" parent="1" source="JBrHtv7_atWJy7W29cf8-412" target="JBrHtv7_atWJy7W29cf8-437">
          <mxGeometry width="50" height="50" relative="1" as="geometry">
            <mxPoint x="735" y="-223" as="sourcePoint" />
            <mxPoint x="785" y="-273" as="targetPoint" />
          </mxGeometry>
        </mxCell>
        <mxCell id="D4TBWOoCTOeFq6Bw1X4H-56" value="" style="endArrow=none;html=1;rounded=0;entryX=0.5;entryY=0;entryDx=0;entryDy=0;exitX=1;exitY=0.5;exitDx=0;exitDy=0;" edge="1" parent="1" source="D4TBWOoCTOeFq6Bw1X4H-79" target="D4TBWOoCTOeFq6Bw1X4H-74">
          <mxGeometry width="50" height="50" relative="1" as="geometry">
            <mxPoint x="831" y="-174" as="sourcePoint" />
            <mxPoint x="881" y="-224" as="targetPoint" />
          </mxGeometry>
        </mxCell>
        <mxCell id="D4TBWOoCTOeFq6Bw1X4H-57" value="" style="endArrow=none;html=1;rounded=0;exitX=0.5;exitY=0;exitDx=0;exitDy=0;entryX=0.5;entryY=1;entryDx=0;entryDy=0;" edge="1" parent="1" source="D4TBWOoCTOeFq6Bw1X4H-74" target="D4TBWOoCTOeFq6Bw1X4H-82">
          <mxGeometry width="50" height="50" relative="1" as="geometry">
            <mxPoint x="872" y="-146" as="sourcePoint" />
            <mxPoint x="922" y="-196" as="targetPoint" />
          </mxGeometry>
        </mxCell>
        <mxCell id="D4TBWOoCTOeFq6Bw1X4H-58" value="" style="endArrow=none;html=1;rounded=0;exitX=1;exitY=0.5;exitDx=0;exitDy=0;" edge="1" parent="1" source="D4TBWOoCTOeFq6Bw1X4H-75">
          <mxGeometry width="50" height="50" relative="1" as="geometry">
            <mxPoint x="1025" y="-279" as="sourcePoint" />
            <mxPoint x="1070" y="-330" as="targetPoint" />
          </mxGeometry>
        </mxCell>
        <mxCell id="D4TBWOoCTOeFq6Bw1X4H-59" value="" style="endArrow=none;html=1;rounded=0;entryX=0;entryY=0.5;entryDx=0;entryDy=0;exitX=0.5;exitY=0;exitDx=0;exitDy=0;" edge="1" parent="1" source="D4TBWOoCTOeFq6Bw1X4H-74" target="D4TBWOoCTOeFq6Bw1X4H-81">
          <mxGeometry width="50" height="50" relative="1" as="geometry">
            <mxPoint x="1045" y="-185" as="sourcePoint" />
            <mxPoint x="1095" y="-235" as="targetPoint" />
          </mxGeometry>
        </mxCell>
        <mxCell id="D4TBWOoCTOeFq6Bw1X4H-60" value="" style="endArrow=none;html=1;rounded=0;entryX=0.5;entryY=0;entryDx=0;entryDy=0;exitX=1;exitY=0.5;exitDx=0;exitDy=0;" edge="1" parent="1" source="D4TBWOoCTOeFq6Bw1X4H-78" target="D4TBWOoCTOeFq6Bw1X4H-74">
          <mxGeometry width="50" height="50" relative="1" as="geometry">
            <mxPoint x="1000" y="-151" as="sourcePoint" />
            <mxPoint x="1050" y="-201" as="targetPoint" />
          </mxGeometry>
        </mxCell>
        <mxCell id="D4TBWOoCTOeFq6Bw1X4H-61" value="" style="endArrow=none;html=1;rounded=0;entryX=0.5;entryY=0;entryDx=0;entryDy=0;exitX=0;exitY=0.5;exitDx=0;exitDy=0;" edge="1" parent="1" source="D4TBWOoCTOeFq6Bw1X4H-77" target="D4TBWOoCTOeFq6Bw1X4H-74">
          <mxGeometry width="50" height="50" relative="1" as="geometry">
            <mxPoint x="980" y="-177.5" as="sourcePoint" />
            <mxPoint x="1030" y="-227.5" as="targetPoint" />
          </mxGeometry>
        </mxCell>
        <mxCell id="D4TBWOoCTOeFq6Bw1X4H-74" value="tbl_test_questions" style="html=1;overflow=block;blockSpacing=1;whiteSpace=wrap;fontSize=13.9;align=left;spacing=3.8;rounded=1;absoluteArcSize=1;arcSize=9;strokeWidth=NaN;lucidId=~mgvDQHZpvH8;" vertex="1" parent="1">
          <mxGeometry x="995" y="-324" width="150" height="60" as="geometry" />
        </mxCell>
        <mxCell id="D4TBWOoCTOeFq6Bw1X4H-75" value="cc_option_a" style="html=1;overflow=block;blockSpacing=1;whiteSpace=wrap;ellipse;fontSize=13.9;fontStyle=1;align=left;spacing=3.8;rounded=1;absoluteArcSize=1;arcSize=9;strokeWidth=NaN;lucidId=~2gv3JfxpZag;" vertex="1" parent="1">
          <mxGeometry x="940" y="-504" width="100" height="39" as="geometry" />
        </mxCell>
        <mxCell id="D4TBWOoCTOeFq6Bw1X4H-76" value="cc_option_b" style="html=1;overflow=block;blockSpacing=1;whiteSpace=wrap;ellipse;fontSize=13.9;fontStyle=1;align=left;spacing=3.8;rounded=1;absoluteArcSize=1;arcSize=9;strokeWidth=NaN;lucidId=~2gvLSs41FfG;" vertex="1" parent="1">
          <mxGeometry x="900" y="-460" width="90" height="40" as="geometry" />
        </mxCell>
        <mxCell id="D4TBWOoCTOeFq6Bw1X4H-77" value="cc_option_c" style="html=1;overflow=block;blockSpacing=1;whiteSpace=wrap;ellipse;fontSize=13.9;fontStyle=1;align=left;spacing=3.8;rounded=1;absoluteArcSize=1;arcSize=9;strokeWidth=NaN;lucidId=~2gvWWUl94nc;" vertex="1" parent="1">
          <mxGeometry x="1153" y="-385" width="93" height="35" as="geometry" />
        </mxCell>
        <mxCell id="D4TBWOoCTOeFq6Bw1X4H-78" value="cc_option_d" style="html=1;overflow=block;blockSpacing=1;whiteSpace=wrap;ellipse;fontSize=13.9;fontStyle=1;align=left;spacing=3.8;rounded=1;absoluteArcSize=1;arcSize=9;strokeWidth=NaN;lucidId=~2gvunNmUj8g;" vertex="1" parent="1">
          <mxGeometry x="859" y="-411" width="101" height="41" as="geometry" />
        </mxCell>
        <mxCell id="D4TBWOoCTOeFq6Bw1X4H-79" value="cc_correction_option" style="html=1;overflow=block;blockSpacing=1;whiteSpace=wrap;ellipse;fontSize=13.9;fontStyle=1;align=left;spacing=3.8;rounded=1;absoluteArcSize=1;arcSize=9;strokeWidth=NaN;lucidId=~2gvJpvToc2N;" vertex="1" parent="1">
          <mxGeometry x="812.5" y="-362" width="151" height="42" as="geometry" />
        </mxCell>
        <mxCell id="D4TBWOoCTOeFq6Bw1X4H-80" value="cc_question" style="html=1;overflow=block;blockSpacing=1;whiteSpace=wrap;ellipse;fontSize=13.9;fontStyle=1;align=left;spacing=3.8;rounded=1;absoluteArcSize=1;arcSize=9;strokeWidth=NaN;lucidId=~2gvqc4sTWxd;" vertex="1" parent="1">
          <mxGeometry x="1130" y="-425" width="92" height="35" as="geometry" />
        </mxCell>
        <mxCell id="D4TBWOoCTOeFq6Bw1X4H-81" value="cc_t_id" style="html=1;overflow=block;blockSpacing=1;whiteSpace=wrap;ellipse;fontSize=13.9;fontStyle=1;align=right;spacing=3.8;rounded=1;absoluteArcSize=1;arcSize=9;strokeWidth=NaN;lucidId=~2gvcBVp3~Xa;" vertex="1" parent="1">
          <mxGeometry x="1087" y="-498" width="66" height="27" as="geometry" />
        </mxCell>
        <mxCell id="D4TBWOoCTOeFq6Bw1X4H-82" value="cc_q_id" style="html=1;overflow=block;blockSpacing=1;whiteSpace=wrap;ellipse;fontSize=13.9;fontStyle=1;align=right;spacing=3.8;rounded=1;absoluteArcSize=1;arcSize=9;strokeWidth=NaN;lucidId=t6gvsZc5QUDS;" vertex="1" parent="1">
          <mxGeometry x="1038" y="-526" width="64" height="28" as="geometry" />
        </mxCell>
        <mxCell id="D4TBWOoCTOeFq6Bw1X4H-83" value="cc_exam_id" style="html=1;overflow=block;blockSpacing=1;whiteSpace=wrap;ellipse;fontSize=13.9;fontStyle=1;align=right;spacing=3.8;rounded=1;absoluteArcSize=1;arcSize=9;strokeWidth=NaN;lucidId=t6gvytbkHaPI;" vertex="1" parent="1">
          <mxGeometry x="1104" y="-470" width="86" height="36" as="geometry" />
        </mxCell>
        <mxCell id="D4TBWOoCTOeFq6Bw1X4H-84" value="" style="endArrow=none;html=1;rounded=0;entryX=0.933;entryY=0.707;entryDx=0;entryDy=0;entryPerimeter=0;exitX=0.045;exitY=0.707;exitDx=0;exitDy=0;exitPerimeter=0;" edge="1" parent="1" source="D4TBWOoCTOeFq6Bw1X4H-82" target="D4TBWOoCTOeFq6Bw1X4H-82">
          <mxGeometry width="50" height="50" relative="1" as="geometry">
            <mxPoint x="1152" y="-726.5" as="sourcePoint" />
            <mxPoint x="1202" y="-776.5" as="targetPoint" />
          </mxGeometry>
        </mxCell>
        <mxCell id="D4TBWOoCTOeFq6Bw1X4H-85" value="" style="endArrow=none;dashed=1;html=1;rounded=0;entryX=0.941;entryY=0.704;entryDx=0;entryDy=0;entryPerimeter=0;exitX=0.063;exitY=0.731;exitDx=0;exitDy=0;exitPerimeter=0;" edge="1" parent="1" source="D4TBWOoCTOeFq6Bw1X4H-83" target="D4TBWOoCTOeFq6Bw1X4H-83">
          <mxGeometry width="50" height="50" relative="1" as="geometry">
            <mxPoint x="1011" y="-816.5" as="sourcePoint" />
            <mxPoint x="1061" y="-866.5" as="targetPoint" />
          </mxGeometry>
        </mxCell>
        <mxCell id="D4TBWOoCTOeFq6Bw1X4H-87" value="" style="endArrow=none;html=1;rounded=0;entryX=0;entryY=0.5;entryDx=0;entryDy=0;" edge="1" parent="1" target="D4TBWOoCTOeFq6Bw1X4H-80">
          <mxGeometry width="50" height="50" relative="1" as="geometry">
            <mxPoint x="1070.5" y="-326" as="sourcePoint" />
            <mxPoint x="1120.5" y="-376" as="targetPoint" />
          </mxGeometry>
        </mxCell>
        <mxCell id="D4TBWOoCTOeFq6Bw1X4H-88" value="" style="endArrow=none;html=1;rounded=0;entryX=1;entryY=0.5;entryDx=0;entryDy=0;exitX=0.5;exitY=0;exitDx=0;exitDy=0;" edge="1" parent="1" source="D4TBWOoCTOeFq6Bw1X4H-74" target="D4TBWOoCTOeFq6Bw1X4H-76">
          <mxGeometry width="50" height="50" relative="1" as="geometry">
            <mxPoint x="1010" y="-141" as="sourcePoint" />
            <mxPoint x="1060" y="-191" as="targetPoint" />
          </mxGeometry>
        </mxCell>
        <mxCell id="D4TBWOoCTOeFq6Bw1X4H-90" value="" style="endArrow=none;html=1;rounded=0;exitX=1;exitY=0.5;exitDx=0;exitDy=0;entryX=0;entryY=0.5;entryDx=0;entryDy=0;" edge="1" parent="1" source="JBrHtv7_atWJy7W29cf8-413" target="JBrHtv7_atWJy7W29cf8-441">
          <mxGeometry width="50" height="50" relative="1" as="geometry">
            <mxPoint x="1095" y="-126" as="sourcePoint" />
            <mxPoint x="1145" y="-176" as="targetPoint" />
          </mxGeometry>
        </mxCell>
        <mxCell id="D4TBWOoCTOeFq6Bw1X4H-92" value="" style="endArrow=none;html=1;rounded=0;entryX=1;entryY=0.5;entryDx=0;entryDy=0;exitX=0;exitY=0.5;exitDx=0;exitDy=0;" edge="1" parent="1" source="JBrHtv7_atWJy7W29cf8-440" target="JBrHtv7_atWJy7W29cf8-413">
          <mxGeometry width="50" height="50" relative="1" as="geometry">
            <mxPoint x="1105" y="-116" as="sourcePoint" />
            <mxPoint x="1155" y="-166" as="targetPoint" />
          </mxGeometry>
        </mxCell>
        <mxCell id="D4TBWOoCTOeFq6Bw1X4H-93" value="" style="endArrow=none;html=1;rounded=0;entryX=1;entryY=0.5;entryDx=0;entryDy=0;exitX=0;exitY=0.5;exitDx=0;exitDy=0;" edge="1" parent="1" source="JBrHtv7_atWJy7W29cf8-442" target="JBrHtv7_atWJy7W29cf8-413">
          <mxGeometry width="50" height="50" relative="1" as="geometry">
            <mxPoint x="1030" y="-121" as="sourcePoint" />
            <mxPoint x="1080" y="-171" as="targetPoint" />
          </mxGeometry>
        </mxCell>
        <mxCell id="D4TBWOoCTOeFq6Bw1X4H-94" value="" style="endArrow=none;html=1;rounded=0;entryX=0;entryY=0.5;entryDx=0;entryDy=0;exitX=0.5;exitY=0;exitDx=0;exitDy=0;" edge="1" parent="1" source="JBrHtv7_atWJy7W29cf8-408" target="JBrHtv7_atWJy7W29cf8-439">
          <mxGeometry width="50" height="50" relative="1" as="geometry">
            <mxPoint x="1308" y="-328" as="sourcePoint" />
            <mxPoint x="1358" y="-378" as="targetPoint" />
          </mxGeometry>
        </mxCell>
        <mxCell id="D4TBWOoCTOeFq6Bw1X4H-95" value="" style="endArrow=none;html=1;rounded=0;entryX=0;entryY=0.5;entryDx=0;entryDy=0;exitX=0.5;exitY=0;exitDx=0;exitDy=0;" edge="1" parent="1" source="JBrHtv7_atWJy7W29cf8-408" target="JBrHtv7_atWJy7W29cf8-438">
          <mxGeometry width="50" height="50" relative="1" as="geometry">
            <mxPoint x="1233" y="-333" as="sourcePoint" />
            <mxPoint x="1283" y="-383" as="targetPoint" />
          </mxGeometry>
        </mxCell>
        <mxCell id="D4TBWOoCTOeFq6Bw1X4H-97" value="" style="endArrow=none;html=1;rounded=0;entryX=0.973;entryY=0.803;entryDx=0;entryDy=0;entryPerimeter=0;exitX=0;exitY=1;exitDx=0;exitDy=0;" edge="1" parent="1" source="JBrHtv7_atWJy7W29cf8-466" target="JBrHtv7_atWJy7W29cf8-466">
          <mxGeometry width="50" height="50" relative="1" as="geometry">
            <mxPoint x="1380" y="213" as="sourcePoint" />
            <mxPoint x="1430" y="163" as="targetPoint" />
          </mxGeometry>
        </mxCell>
        <mxCell id="D4TBWOoCTOeFq6Bw1X4H-98" value="" style="endArrow=none;html=1;rounded=0;" edge="1" parent="1">
          <mxGeometry width="50" height="50" relative="1" as="geometry">
            <mxPoint x="1050" y="-101" as="sourcePoint" />
            <mxPoint x="1100" y="-151" as="targetPoint" />
          </mxGeometry>
        </mxCell>
        <mxCell id="D4TBWOoCTOeFq6Bw1X4H-99" value="" style="endArrow=none;html=1;rounded=0;entryX=0.5;entryY=0;entryDx=0;entryDy=0;exitX=1;exitY=0.5;exitDx=0;exitDy=0;" edge="1" parent="1" source="JBrHtv7_atWJy7W29cf8-414" target="JBrHtv7_atWJy7W29cf8-457">
          <mxGeometry width="50" height="50" relative="1" as="geometry">
            <mxPoint x="1570" y="-9" as="sourcePoint" />
            <mxPoint x="1620" y="-59" as="targetPoint" />
          </mxGeometry>
        </mxCell>
        <mxCell id="D4TBWOoCTOeFq6Bw1X4H-100" value="" style="endArrow=none;html=1;rounded=0;" edge="1" parent="1">
          <mxGeometry width="50" height="50" relative="1" as="geometry">
            <mxPoint x="1315" y="218" as="sourcePoint" />
            <mxPoint x="1365" y="168" as="targetPoint" />
          </mxGeometry>
        </mxCell>
        <mxCell id="D4TBWOoCTOeFq6Bw1X4H-101" value="" style="endArrow=none;html=1;rounded=0;entryX=0;entryY=0.5;entryDx=0;entryDy=0;exitX=1;exitY=0.5;exitDx=0;exitDy=0;" edge="1" parent="1" source="JBrHtv7_atWJy7W29cf8-414" target="JBrHtv7_atWJy7W29cf8-455">
          <mxGeometry width="50" height="50" relative="1" as="geometry">
            <mxPoint x="1604" y="-60" as="sourcePoint" />
            <mxPoint x="1654" y="-110" as="targetPoint" />
          </mxGeometry>
        </mxCell>
        <mxCell id="D4TBWOoCTOeFq6Bw1X4H-102" value="" style="endArrow=none;html=1;rounded=0;entryX=0;entryY=0.5;entryDx=0;entryDy=0;exitX=1;exitY=0.5;exitDx=0;exitDy=0;" edge="1" parent="1" source="JBrHtv7_atWJy7W29cf8-410" target="JBrHtv7_atWJy7W29cf8-465">
          <mxGeometry width="50" height="50" relative="1" as="geometry">
            <mxPoint x="1641" y="250" as="sourcePoint" />
            <mxPoint x="1691" y="200" as="targetPoint" />
          </mxGeometry>
        </mxCell>
        <mxCell id="D4TBWOoCTOeFq6Bw1X4H-103" value="" style="endArrow=none;html=1;rounded=0;entryX=0.5;entryY=0;entryDx=0;entryDy=0;exitX=1;exitY=0.5;exitDx=0;exitDy=0;" edge="1" parent="1" source="JBrHtv7_atWJy7W29cf8-414" target="JBrHtv7_atWJy7W29cf8-456">
          <mxGeometry width="50" height="50" relative="1" as="geometry">
            <mxPoint x="1604" y="-51" as="sourcePoint" />
            <mxPoint x="1654" y="-101" as="targetPoint" />
          </mxGeometry>
        </mxCell>
        <mxCell id="D4TBWOoCTOeFq6Bw1X4H-104" value="" style="endArrow=none;html=1;rounded=0;entryX=1;entryY=0.5;entryDx=0;entryDy=0;exitX=0;exitY=0.5;exitDx=0;exitDy=0;" edge="1" parent="1" source="JBrHtv7_atWJy7W29cf8-466" target="JBrHtv7_atWJy7W29cf8-410">
          <mxGeometry width="50" height="50" relative="1" as="geometry">
            <mxPoint x="1335" y="238" as="sourcePoint" />
            <mxPoint x="1385" y="188" as="targetPoint" />
          </mxGeometry>
        </mxCell>
        <mxCell id="D4TBWOoCTOeFq6Bw1X4H-105" value="" style="endArrow=none;html=1;rounded=0;" edge="1" parent="1">
          <mxGeometry width="50" height="50" relative="1" as="geometry">
            <mxPoint x="1165" y="-56" as="sourcePoint" />
            <mxPoint x="1215" y="-106" as="targetPoint" />
          </mxGeometry>
        </mxCell>
        <mxCell id="D4TBWOoCTOeFq6Bw1X4H-106" value="" style="endArrow=none;html=1;rounded=0;" edge="1" parent="1">
          <mxGeometry width="50" height="50" relative="1" as="geometry">
            <mxPoint x="1345" y="248" as="sourcePoint" />
            <mxPoint x="1395" y="198" as="targetPoint" />
          </mxGeometry>
        </mxCell>
        <mxCell id="D4TBWOoCTOeFq6Bw1X4H-107" value="" style="endArrow=none;html=1;rounded=0;entryX=0;entryY=0.5;entryDx=0;entryDy=0;exitX=1;exitY=0.5;exitDx=0;exitDy=0;" edge="1" parent="1" source="JBrHtv7_atWJy7W29cf8-414" target="JBrHtv7_atWJy7W29cf8-459">
          <mxGeometry width="50" height="50" relative="1" as="geometry">
            <mxPoint x="1560" y="-81" as="sourcePoint" />
            <mxPoint x="1676" y="-131" as="targetPoint" />
          </mxGeometry>
        </mxCell>
        <mxCell id="D4TBWOoCTOeFq6Bw1X4H-108" value="" style="endArrow=none;html=1;rounded=0;entryX=0.5;entryY=1;entryDx=0;entryDy=0;exitX=0.727;exitY=-0.016;exitDx=0;exitDy=0;exitPerimeter=0;" edge="1" parent="1" source="JBrHtv7_atWJy7W29cf8-416" target="JBrHtv7_atWJy7W29cf8-470">
          <mxGeometry width="50" height="50" relative="1" as="geometry">
            <mxPoint x="1750" y="480" as="sourcePoint" />
            <mxPoint x="1838.5" y="403" as="targetPoint" />
          </mxGeometry>
        </mxCell>
        <mxCell id="D4TBWOoCTOeFq6Bw1X4H-109" value="" style="endArrow=none;html=1;rounded=0;entryX=1;entryY=0.5;entryDx=0;entryDy=0;exitX=0.5;exitY=1;exitDx=0;exitDy=0;" edge="1" parent="1" source="JBrHtv7_atWJy7W29cf8-462" target="JBrHtv7_atWJy7W29cf8-414">
          <mxGeometry width="50" height="50" relative="1" as="geometry">
            <mxPoint x="1185" y="-36" as="sourcePoint" />
            <mxPoint x="1235" y="-86" as="targetPoint" />
          </mxGeometry>
        </mxCell>
        <mxCell id="D4TBWOoCTOeFq6Bw1X4H-110" value="" style="endArrow=none;html=1;rounded=0;" edge="1" parent="1">
          <mxGeometry width="50" height="50" relative="1" as="geometry">
            <mxPoint x="1365" y="268" as="sourcePoint" />
            <mxPoint x="1415" y="218" as="targetPoint" />
          </mxGeometry>
        </mxCell>
        <mxCell id="D4TBWOoCTOeFq6Bw1X4H-111" value="" style="endArrow=none;html=1;rounded=0;entryX=0;entryY=0.5;entryDx=0;entryDy=0;" edge="1" parent="1" source="JBrHtv7_atWJy7W29cf8-414" target="JBrHtv7_atWJy7W29cf8-453">
          <mxGeometry width="50" height="50" relative="1" as="geometry">
            <mxPoint x="1646" y="-61" as="sourcePoint" />
            <mxPoint x="1696" y="-111" as="targetPoint" />
          </mxGeometry>
        </mxCell>
        <mxCell id="D4TBWOoCTOeFq6Bw1X4H-112" value="" style="endArrow=none;html=1;rounded=0;" edge="1" parent="1">
          <mxGeometry width="50" height="50" relative="1" as="geometry">
            <mxPoint x="1120" y="-31" as="sourcePoint" />
            <mxPoint x="1170" y="-81" as="targetPoint" />
          </mxGeometry>
        </mxCell>
        <mxCell id="D4TBWOoCTOeFq6Bw1X4H-113" value="" style="endArrow=none;html=1;rounded=0;exitX=1;exitY=0.5;exitDx=0;exitDy=0;entryX=0;entryY=0.5;entryDx=0;entryDy=0;" edge="1" parent="1" source="JBrHtv7_atWJy7W29cf8-414" target="JBrHtv7_atWJy7W29cf8-454">
          <mxGeometry width="50" height="50" relative="1" as="geometry">
            <mxPoint x="1656" y="-51" as="sourcePoint" />
            <mxPoint x="1706" y="-101" as="targetPoint" />
          </mxGeometry>
        </mxCell>
        <mxCell id="D4TBWOoCTOeFq6Bw1X4H-114" value="" style="endArrow=none;html=1;rounded=0;" edge="1" parent="1">
          <mxGeometry width="50" height="50" relative="1" as="geometry">
            <mxPoint x="1130" y="-21" as="sourcePoint" />
            <mxPoint x="1180" y="-71" as="targetPoint" />
          </mxGeometry>
        </mxCell>
        <mxCell id="D4TBWOoCTOeFq6Bw1X4H-115" value="" style="endArrow=none;html=1;rounded=0;exitX=1;exitY=0.5;exitDx=0;exitDy=0;entryX=0;entryY=0.5;entryDx=0;entryDy=0;" edge="1" parent="1" source="JBrHtv7_atWJy7W29cf8-414" target="JBrHtv7_atWJy7W29cf8-460">
          <mxGeometry width="50" height="50" relative="1" as="geometry">
            <mxPoint x="1583" y="-97" as="sourcePoint" />
            <mxPoint x="1633" y="-147" as="targetPoint" />
          </mxGeometry>
        </mxCell>
        <mxCell id="D4TBWOoCTOeFq6Bw1X4H-116" value="" style="endArrow=none;html=1;rounded=0;entryX=0.5;entryY=1;entryDx=0;entryDy=0;exitX=1;exitY=0.5;exitDx=0;exitDy=0;" edge="1" parent="1" source="JBrHtv7_atWJy7W29cf8-414" target="JBrHtv7_atWJy7W29cf8-463">
          <mxGeometry width="50" height="50" relative="1" as="geometry">
            <mxPoint x="1593" y="-65" as="sourcePoint" />
            <mxPoint x="1643" y="-115" as="targetPoint" />
          </mxGeometry>
        </mxCell>
        <mxCell id="D4TBWOoCTOeFq6Bw1X4H-117" value="" style="endArrow=none;html=1;rounded=0;entryX=0.5;entryY=0;entryDx=0;entryDy=0;exitX=0.5;exitY=1;exitDx=0;exitDy=0;" edge="1" parent="1" source="JBrHtv7_atWJy7W29cf8-461" target="JBrHtv7_atWJy7W29cf8-414">
          <mxGeometry width="50" height="50" relative="1" as="geometry">
            <mxPoint x="1225" y="4" as="sourcePoint" />
            <mxPoint x="1275" y="-46" as="targetPoint" />
          </mxGeometry>
        </mxCell>
        <mxCell id="D4TBWOoCTOeFq6Bw1X4H-118" value="" style="endArrow=none;html=1;rounded=0;entryX=0.5;entryY=0;entryDx=0;entryDy=0;exitX=0.5;exitY=1;exitDx=0;exitDy=0;" edge="1" parent="1" source="JBrHtv7_atWJy7W29cf8-414" target="JBrHtv7_atWJy7W29cf8-458">
          <mxGeometry width="50" height="50" relative="1" as="geometry">
            <mxPoint x="1150" y="-1" as="sourcePoint" />
            <mxPoint x="1200" y="-51" as="targetPoint" />
          </mxGeometry>
        </mxCell>
        <mxCell id="D4TBWOoCTOeFq6Bw1X4H-131" value="" style="endArrow=none;html=1;rounded=0;exitX=1;exitY=0.5;exitDx=0;exitDy=0;entryX=1;entryY=0.5;entryDx=0;entryDy=0;" edge="1" parent="1" source="JBrHtv7_atWJy7W29cf8-416" target="JBrHtv7_atWJy7W29cf8-469">
          <mxGeometry width="50" height="50" relative="1" as="geometry">
            <mxPoint x="1832" y="476" as="sourcePoint" />
            <mxPoint x="1882" y="426" as="targetPoint" />
          </mxGeometry>
        </mxCell>
        <mxCell id="D4TBWOoCTOeFq6Bw1X4H-132" value="" style="endArrow=none;html=1;rounded=0;entryX=0;entryY=0.5;entryDx=0;entryDy=0;exitX=1;exitY=0.5;exitDx=0;exitDy=0;" edge="1" parent="1" source="JBrHtv7_atWJy7W29cf8-416" target="JBrHtv7_atWJy7W29cf8-480">
          <mxGeometry width="50" height="50" relative="1" as="geometry">
            <mxPoint x="1842" y="486" as="sourcePoint" />
            <mxPoint x="1892" y="436" as="targetPoint" />
          </mxGeometry>
        </mxCell>
        <mxCell id="D4TBWOoCTOeFq6Bw1X4H-133" value="" style="endArrow=none;html=1;rounded=0;entryX=0.901;entryY=0.977;entryDx=0;entryDy=0;entryPerimeter=0;exitX=1;exitY=0.5;exitDx=0;exitDy=0;" edge="1" parent="1" source="JBrHtv7_atWJy7W29cf8-416" target="JBrHtv7_atWJy7W29cf8-490">
          <mxGeometry width="50" height="50" relative="1" as="geometry">
            <mxPoint x="1852" y="496" as="sourcePoint" />
            <mxPoint x="1902" y="446" as="targetPoint" />
          </mxGeometry>
        </mxCell>
        <mxCell id="D4TBWOoCTOeFq6Bw1X4H-134" value="" style="endArrow=none;html=1;rounded=0;entryX=0.5;entryY=0;entryDx=0;entryDy=0;exitX=0.75;exitY=1;exitDx=0;exitDy=0;" edge="1" parent="1" source="JBrHtv7_atWJy7W29cf8-416" target="JBrHtv7_atWJy7W29cf8-471">
          <mxGeometry width="50" height="50" relative="1" as="geometry">
            <mxPoint x="1798.5" y="463" as="sourcePoint" />
            <mxPoint x="1848.5" y="413" as="targetPoint" />
          </mxGeometry>
        </mxCell>
        <mxCell id="D4TBWOoCTOeFq6Bw1X4H-135" value="" style="endArrow=none;html=1;rounded=0;entryX=0.5;entryY=1;entryDx=0;entryDy=0;exitX=1;exitY=0.5;exitDx=0;exitDy=0;" edge="1" parent="1" source="JBrHtv7_atWJy7W29cf8-416" target="JBrHtv7_atWJy7W29cf8-485">
          <mxGeometry width="50" height="50" relative="1" as="geometry">
            <mxPoint x="1750" y="490" as="sourcePoint" />
            <mxPoint x="1892" y="436" as="targetPoint" />
          </mxGeometry>
        </mxCell>
        <mxCell id="D4TBWOoCTOeFq6Bw1X4H-136" value="" style="endArrow=none;html=1;rounded=0;entryX=0;entryY=0.5;entryDx=0;entryDy=0;exitX=1;exitY=0.5;exitDx=0;exitDy=0;" edge="1" parent="1" source="JBrHtv7_atWJy7W29cf8-416" target="JBrHtv7_atWJy7W29cf8-473">
          <mxGeometry width="50" height="50" relative="1" as="geometry">
            <mxPoint x="1852" y="496" as="sourcePoint" />
            <mxPoint x="1902" y="446" as="targetPoint" />
          </mxGeometry>
        </mxCell>
        <mxCell id="D4TBWOoCTOeFq6Bw1X4H-137" value="" style="endArrow=none;html=1;rounded=0;entryX=1;entryY=0.5;entryDx=0;entryDy=0;exitX=1;exitY=0.51;exitDx=0;exitDy=0;exitPerimeter=0;" edge="1" parent="1" source="JBrHtv7_atWJy7W29cf8-416" target="JBrHtv7_atWJy7W29cf8-481">
          <mxGeometry width="50" height="50" relative="1" as="geometry">
            <mxPoint x="1750" y="490" as="sourcePoint" />
            <mxPoint x="1858.5" y="423" as="targetPoint" />
          </mxGeometry>
        </mxCell>
        <mxCell id="D4TBWOoCTOeFq6Bw1X4H-138" value="" style="endArrow=none;html=1;rounded=0;entryX=0;entryY=0.5;entryDx=0;entryDy=0;exitX=1;exitY=0.5;exitDx=0;exitDy=0;" edge="1" parent="1" source="JBrHtv7_atWJy7W29cf8-416" target="JBrHtv7_atWJy7W29cf8-479">
          <mxGeometry width="50" height="50" relative="1" as="geometry">
            <mxPoint x="1852" y="496" as="sourcePoint" />
            <mxPoint x="1902" y="446" as="targetPoint" />
          </mxGeometry>
        </mxCell>
        <mxCell id="D4TBWOoCTOeFq6Bw1X4H-139" value="" style="endArrow=none;html=1;rounded=0;entryX=0;entryY=0.5;entryDx=0;entryDy=0;" edge="1" parent="1" source="JBrHtv7_atWJy7W29cf8-416" target="JBrHtv7_atWJy7W29cf8-476">
          <mxGeometry width="50" height="50" relative="1" as="geometry">
            <mxPoint x="1862" y="506" as="sourcePoint" />
            <mxPoint x="1912" y="456" as="targetPoint" />
          </mxGeometry>
        </mxCell>
        <mxCell id="D4TBWOoCTOeFq6Bw1X4H-140" value="" style="endArrow=none;html=1;rounded=0;exitX=1;exitY=0.5;exitDx=0;exitDy=0;entryX=0;entryY=0.5;entryDx=0;entryDy=0;" edge="1" parent="1" source="JBrHtv7_atWJy7W29cf8-416" target="JBrHtv7_atWJy7W29cf8-472">
          <mxGeometry width="50" height="50" relative="1" as="geometry">
            <mxPoint x="1818.5" y="483" as="sourcePoint" />
            <mxPoint x="1868.5" y="433" as="targetPoint" />
          </mxGeometry>
        </mxCell>
        <mxCell id="D4TBWOoCTOeFq6Bw1X4H-141" value="" style="endArrow=none;html=1;rounded=0;entryX=0;entryY=0.5;entryDx=0;entryDy=0;exitX=1;exitY=0.5;exitDx=0;exitDy=0;" edge="1" parent="1" source="JBrHtv7_atWJy7W29cf8-416" target="JBrHtv7_atWJy7W29cf8-482">
          <mxGeometry width="50" height="50" relative="1" as="geometry">
            <mxPoint x="1862" y="506" as="sourcePoint" />
            <mxPoint x="1912" y="456" as="targetPoint" />
          </mxGeometry>
        </mxCell>
        <mxCell id="D4TBWOoCTOeFq6Bw1X4H-143" value="" style="endArrow=none;html=1;rounded=0;exitX=1;exitY=0.5;exitDx=0;exitDy=0;entryX=1;entryY=1;entryDx=0;entryDy=0;" edge="1" parent="1" source="JBrHtv7_atWJy7W29cf8-416" target="JBrHtv7_atWJy7W29cf8-475">
          <mxGeometry width="50" height="50" relative="1" as="geometry">
            <mxPoint x="1828.5" y="493" as="sourcePoint" />
            <mxPoint x="1878.5" y="443" as="targetPoint" />
          </mxGeometry>
        </mxCell>
        <mxCell id="D4TBWOoCTOeFq6Bw1X4H-144" value="" style="endArrow=none;html=1;rounded=0;entryX=0;entryY=0.5;entryDx=0;entryDy=0;exitX=1;exitY=0.5;exitDx=0;exitDy=0;" edge="1" parent="1" source="JBrHtv7_atWJy7W29cf8-416" target="JBrHtv7_atWJy7W29cf8-477">
          <mxGeometry width="50" height="50" relative="1" as="geometry">
            <mxPoint x="1872" y="516" as="sourcePoint" />
            <mxPoint x="1922" y="466" as="targetPoint" />
          </mxGeometry>
        </mxCell>
        <mxCell id="D4TBWOoCTOeFq6Bw1X4H-145" value="" style="endArrow=none;html=1;rounded=0;entryX=0.699;entryY=0.053;entryDx=0;entryDy=0;entryPerimeter=0;" edge="1" parent="1" target="JBrHtv7_atWJy7W29cf8-483">
          <mxGeometry width="50" height="50" relative="1" as="geometry">
            <mxPoint x="1750" y="490" as="sourcePoint" />
            <mxPoint x="1932" y="476" as="targetPoint" />
          </mxGeometry>
        </mxCell>
        <mxCell id="D4TBWOoCTOeFq6Bw1X4H-146" value="" style="endArrow=none;html=1;rounded=0;entryX=0;entryY=1;entryDx=0;entryDy=0;exitX=1;exitY=0.5;exitDx=0;exitDy=0;" edge="1" parent="1" source="JBrHtv7_atWJy7W29cf8-416" target="JBrHtv7_atWJy7W29cf8-468">
          <mxGeometry width="50" height="50" relative="1" as="geometry">
            <mxPoint x="1838.5" y="503" as="sourcePoint" />
            <mxPoint x="1888.5" y="453" as="targetPoint" />
          </mxGeometry>
        </mxCell>
        <mxCell id="D4TBWOoCTOeFq6Bw1X4H-147" value="" style="endArrow=none;html=1;rounded=0;entryX=0.742;entryY=-0.03;entryDx=0;entryDy=0;entryPerimeter=0;exitX=1;exitY=0.5;exitDx=0;exitDy=0;" edge="1" parent="1" source="JBrHtv7_atWJy7W29cf8-416" target="JBrHtv7_atWJy7W29cf8-474">
          <mxGeometry width="50" height="50" relative="1" as="geometry">
            <mxPoint x="1882" y="526" as="sourcePoint" />
            <mxPoint x="1932" y="476" as="targetPoint" />
          </mxGeometry>
        </mxCell>
        <mxCell id="D4TBWOoCTOeFq6Bw1X4H-148" value="" style="endArrow=none;html=1;rounded=0;exitX=1;exitY=0.5;exitDx=0;exitDy=0;entryX=0.5;entryY=0;entryDx=0;entryDy=0;" edge="1" parent="1" source="JBrHtv7_atWJy7W29cf8-416" target="JBrHtv7_atWJy7W29cf8-478">
          <mxGeometry width="50" height="50" relative="1" as="geometry">
            <mxPoint x="1892" y="536" as="sourcePoint" />
            <mxPoint x="1960" y="630" as="targetPoint" />
          </mxGeometry>
        </mxCell>
      </root>
    </mxGraphModel>
  </diagram>
</mxfile>
